<?xml version="1.0" encoding="UTF-8" standalone="no"?>
<!DOCTYPE svg PUBLIC "-//W3C//DTD SVG 1.1//EN"
 "http://www.w3.org/Graphics/SVG/1.1/DTD/svg11.dtd">
<!-- Generated by graphviz version 2.30.1 (20130530.1301)
 -->
<!-- Title: controllers_diagram Pages: 1 -->
<svg width="1337pt" height="1427pt"
 viewBox="0.00 0.00 1336.98 1427.00" xmlns="http://www.w3.org/2000/svg" xmlns:xlink="http://www.w3.org/1999/xlink">
<g id="graph0" class="graph" transform="scale(1 1) rotate(0) translate(4 1423)">
<title>controllers_diagram</title>
<polygon fill="white" stroke="white" points="-4,5 -4,-1423 1333.98,-1423 1333.98,5 -4,5"/>
<!-- _diagram_info -->
<g id="node1" class="node"><title>_diagram_info</title>
<text text-anchor="start" x="223" y="-1402" font-family="Times,serif" font-size="13.00">Controllers diagram</text>
<text text-anchor="start" x="223" y="-1386.4" font-family="Times,serif" font-size="13.00">Date: May 30 2013 &#45; 09:08</text>
<text text-anchor="start" x="223" y="-1370.8" font-family="Times,serif" font-size="13.00">Migration version: 20130528145259</text>
<text text-anchor="start" x="223" y="-1355.2" font-family="Times,serif" font-size="13.00">Generated by RailRoady 1.1.0</text>
<text text-anchor="start" x="223" y="-1339.6" font-family="Times,serif" font-size="13.00">http://railroady.prestonlee.com</text>
</g>
<!-- Admin::BaseController -->
<g id="node2" class="node"><title>Admin::BaseController</title>
<path fill="none" stroke="black" d="M25.9568,-447.375C25.9568,-447.375 204.592,-447.375 204.592,-447.375 210.592,-447.375 216.592,-453.375 216.592,-459.375 216.592,-459.375 216.592,-550.575 216.592,-550.575 216.592,-556.575 210.592,-562.575 204.592,-562.575 204.592,-562.575 25.9568,-562.575 25.9568,-562.575 19.9568,-562.575 13.9568,-556.575 13.9568,-550.575 13.9568,-550.575 13.9568,-459.375 13.9568,-459.375 13.9568,-453.375 19.9568,-447.375 25.9568,-447.375"/>
<text text-anchor="middle" x="115.274" y="-544.575" font-family="Times,serif" font-size="14.00">Admin::BaseController</text>
<polyline fill="none" stroke="black" points="13.9568,-537.775 216.592,-537.775 "/>
<text text-anchor="start" x="21.9568" y="-519.775" font-family="Times,serif" font-size="14.00">_one_time_conditions_valid_72?</text>
<polyline fill="none" stroke="black" points="13.9568,-512.975 216.592,-512.975 "/>
<polyline fill="none" stroke="black" points="13.9568,-488.975 216.592,-488.975 "/>
<text text-anchor="start" x="21.9568" y="-470.975" font-family="Times,serif" font-size="14.00">_layout</text>
<text text-anchor="start" x="21.9568" y="-454.175" font-family="Times,serif" font-size="14.00">verify_admin</text>
</g>
<!-- Admin::EmailTemplatesController -->
<g id="node3" class="node"><title>Admin::EmailTemplatesController</title>
<path fill="none" stroke="black" d="M1130,-1247.5C1130,-1247.5 1316.98,-1247.5 1316.98,-1247.5 1322.98,-1247.5 1328.98,-1253.5 1328.98,-1259.5 1328.98,-1259.5 1328.98,-1401.1 1328.98,-1401.1 1328.98,-1407.1 1322.98,-1413.1 1316.98,-1413.1 1316.98,-1413.1 1130,-1413.1 1130,-1413.1 1124,-1413.1 1118,-1407.1 1118,-1401.1 1118,-1401.1 1118,-1259.5 1118,-1259.5 1118,-1253.5 1124,-1247.5 1130,-1247.5"/>
<text text-anchor="middle" x="1223.49" y="-1395.1" font-family="Times,serif" font-size="14.00">Admin::EmailTemplatesController</text>
<polyline fill="none" stroke="black" points="1118,-1388.3 1328.98,-1388.3 "/>
<text text-anchor="start" x="1126" y="-1370.3" font-family="Times,serif" font-size="14.00">_callback_before_79</text>
<text text-anchor="start" x="1126" y="-1353.5" font-family="Times,serif" font-size="14.00">_one_time_conditions_valid_80?</text>
<text text-anchor="start" x="1126" y="-1336.7" font-family="Times,serif" font-size="14.00">destroy</text>
<text text-anchor="start" x="1126" y="-1319.9" font-family="Times,serif" font-size="14.00">index</text>
<text text-anchor="start" x="1126" y="-1303.1" font-family="Times,serif" font-size="14.00">update</text>
<polyline fill="none" stroke="black" points="1118,-1296.3 1328.98,-1296.3 "/>
<polyline fill="none" stroke="black" points="1118,-1272.3 1328.98,-1272.3 "/>
<text text-anchor="start" x="1126" y="-1254.3" font-family="Times,serif" font-size="14.00">_layout</text>
</g>
<!-- Admin::OrganizationsController -->
<g id="node4" class="node"><title>Admin::OrganizationsController</title>
<path fill="none" stroke="black" d="M829,-1247.5C829,-1247.5 1014.63,-1247.5 1014.63,-1247.5 1020.63,-1247.5 1026.63,-1253.5 1026.63,-1259.5 1026.63,-1259.5 1026.63,-1401.1 1026.63,-1401.1 1026.63,-1407.1 1020.63,-1413.1 1014.63,-1413.1 1014.63,-1413.1 829,-1413.1 829,-1413.1 823,-1413.1 817,-1407.1 817,-1401.1 817,-1401.1 817,-1259.5 817,-1259.5 817,-1253.5 823,-1247.5 829,-1247.5"/>
<text text-anchor="middle" x="921.817" y="-1395.1" font-family="Times,serif" font-size="14.00">Admin::OrganizationsController</text>
<polyline fill="none" stroke="black" points="817,-1388.3 1026.63,-1388.3 "/>
<text text-anchor="start" x="825" y="-1370.3" font-family="Times,serif" font-size="14.00">_callback_before_173</text>
<text text-anchor="start" x="825" y="-1353.5" font-family="Times,serif" font-size="14.00">_one_time_conditions_valid_174?</text>
<text text-anchor="start" x="825" y="-1336.7" font-family="Times,serif" font-size="14.00">index</text>
<text text-anchor="start" x="825" y="-1319.9" font-family="Times,serif" font-size="14.00">show</text>
<polyline fill="none" stroke="black" points="817,-1313.1 1026.63,-1313.1 "/>
<polyline fill="none" stroke="black" points="817,-1289.1 1026.63,-1289.1 "/>
<text text-anchor="start" x="825" y="-1271.1" font-family="Times,serif" font-size="14.00">_layout</text>
<text text-anchor="start" x="825" y="-1254.3" font-family="Times,serif" font-size="14.00">apply_filter</text>
</g>
<!-- Admin::UsersController -->
<g id="node5" class="node"><title>Admin::UsersController</title>
<path fill="none" stroke="black" d="M1087,-86.5C1087,-86.5 1272.63,-86.5 1272.63,-86.5 1278.63,-86.5 1284.63,-92.5 1284.63,-98.5 1284.63,-98.5 1284.63,-307.3 1284.63,-307.3 1284.63,-313.3 1278.63,-319.3 1272.63,-319.3 1272.63,-319.3 1087,-319.3 1087,-319.3 1081,-319.3 1075,-313.3 1075,-307.3 1075,-307.3 1075,-98.5 1075,-98.5 1075,-92.5 1081,-86.5 1087,-86.5"/>
<text text-anchor="middle" x="1179.82" y="-301.3" font-family="Times,serif" font-size="14.00">Admin::UsersController</text>
<polyline fill="none" stroke="black" points="1075,-294.5 1284.63,-294.5 "/>
<text text-anchor="start" x="1083" y="-276.5" font-family="Times,serif" font-size="14.00">_callback_before_175</text>
<text text-anchor="start" x="1083" y="-259.7" font-family="Times,serif" font-size="14.00">_one_time_conditions_valid_176?</text>
<text text-anchor="start" x="1083" y="-242.9" font-family="Times,serif" font-size="14.00">create</text>
<text text-anchor="start" x="1083" y="-226.1" font-family="Times,serif" font-size="14.00">destroy</text>
<text text-anchor="start" x="1083" y="-209.3" font-family="Times,serif" font-size="14.00">edit</text>
<text text-anchor="start" x="1083" y="-192.5" font-family="Times,serif" font-size="14.00">index</text>
<text text-anchor="start" x="1083" y="-175.7" font-family="Times,serif" font-size="14.00">new</text>
<text text-anchor="start" x="1083" y="-158.9" font-family="Times,serif" font-size="14.00">show</text>
<text text-anchor="start" x="1083" y="-142.1" font-family="Times,serif" font-size="14.00">update</text>
<polyline fill="none" stroke="black" points="1075,-135.3 1284.63,-135.3 "/>
<polyline fill="none" stroke="black" points="1075,-111.3 1284.63,-111.3 "/>
<text text-anchor="start" x="1083" y="-93.3" font-family="Times,serif" font-size="14.00">_layout</text>
</g>
<!-- ApplicationController -->
<g id="node6" class="node"><title>ApplicationController</title>
<path fill="none" stroke="black" d="M535.906,-469.868C535.906,-469.868 714.541,-469.868 714.541,-469.868 720.541,-469.868 726.541,-475.868 726.541,-481.868 726.541,-481.868 726.541,-641.068 726.541,-641.068 726.541,-647.068 720.541,-653.068 714.541,-653.068 714.541,-653.068 535.906,-653.068 535.906,-653.068 529.906,-653.068 523.906,-647.068 523.906,-641.068 523.906,-641.068 523.906,-481.868 523.906,-481.868 523.906,-475.868 529.906,-469.868 535.906,-469.868"/>
<text text-anchor="middle" x="625.224" y="-635.068" font-family="Times,serif" font-size="14.00">ApplicationController</text>
<polyline fill="none" stroke="black" points="523.906,-628.268 726.541,-628.268 "/>
<text text-anchor="start" x="531.906" y="-610.268" font-family="Times,serif" font-size="14.00">_one_time_conditions_valid_68?</text>
<text text-anchor="start" x="531.906" y="-593.468" font-family="Times,serif" font-size="14.00">_one_time_conditions_valid_70?</text>
<text text-anchor="start" x="531.906" y="-576.668" font-family="Times,serif" font-size="14.00">set_current_tenant</text>
<polyline fill="none" stroke="black" points="523.906,-569.868 726.541,-569.868 "/>
<text text-anchor="start" x="531.906" y="-551.868" font-family="Times,serif" font-size="14.00">after_sign_in_path_for</text>
<text text-anchor="start" x="531.906" y="-535.068" font-family="Times,serif" font-size="14.00">layout_by_resource</text>
<text text-anchor="start" x="531.906" y="-518.268" font-family="Times,serif" font-size="14.00">set_tenant</text>
<polyline fill="none" stroke="black" points="523.906,-511.468 726.541,-511.468 "/>
<text text-anchor="start" x="531.906" y="-493.468" font-family="Times,serif" font-size="14.00">_layout</text>
<text text-anchor="start" x="531.906" y="-476.668" font-family="Times,serif" font-size="14.00">current_tenant</text>
</g>
<!-- ApplicationController&#45;&gt;Admin::BaseController -->
<g id="edge1" class="edge"><title>ApplicationController&#45;&gt;Admin::BaseController</title>
<path fill="none" stroke="black" d="M523.843,-568.821C455.377,-571.822 363.203,-572.036 282.98,-559.125 261.231,-555.624 238.45,-549.809 216.938,-543.259"/>
</g>
<!-- AppointmentsController -->
<g id="node7" class="node"><title>AppointmentsController</title>
<path fill="none" stroke="black" d="M306.33,-0.5C306.33,-0.5 491.965,-0.5 491.965,-0.5 497.965,-0.5 503.965,-6.5 503.965,-12.5 503.965,-12.5 503.965,-221.3 503.965,-221.3 503.965,-227.3 497.965,-233.3 491.965,-233.3 491.965,-233.3 306.33,-233.3 306.33,-233.3 300.33,-233.3 294.33,-227.3 294.33,-221.3 294.33,-221.3 294.33,-12.5 294.33,-12.5 294.33,-6.5 300.33,-0.5 306.33,-0.5"/>
<text text-anchor="middle" x="399.148" y="-215.3" font-family="Times,serif" font-size="14.00">AppointmentsController</text>
<polyline fill="none" stroke="black" points="294.33,-208.5 503.965,-208.5 "/>
<text text-anchor="start" x="302.33" y="-190.5" font-family="Times,serif" font-size="14.00">_callback_before_321</text>
<text text-anchor="start" x="302.33" y="-173.7" font-family="Times,serif" font-size="14.00">_one_time_conditions_valid_320?</text>
<text text-anchor="start" x="302.33" y="-156.9" font-family="Times,serif" font-size="14.00">_one_time_conditions_valid_322?</text>
<text text-anchor="start" x="302.33" y="-140.1" font-family="Times,serif" font-size="14.00">create</text>
<text text-anchor="start" x="302.33" y="-123.3" font-family="Times,serif" font-size="14.00">destroy</text>
<text text-anchor="start" x="302.33" y="-106.5" font-family="Times,serif" font-size="14.00">index</text>
<text text-anchor="start" x="302.33" y="-89.7" font-family="Times,serif" font-size="14.00">modal</text>
<text text-anchor="start" x="302.33" y="-72.9" font-family="Times,serif" font-size="14.00">update</text>
<polyline fill="none" stroke="black" points="294.33,-66.1 503.965,-66.1 "/>
<polyline fill="none" stroke="black" points="294.33,-42.1 503.965,-42.1 "/>
<text text-anchor="start" x="302.33" y="-24.1" font-family="Times,serif" font-size="14.00">_layout</text>
<text text-anchor="start" x="302.33" y="-7.3" font-family="Times,serif" font-size="14.00">apply_date_range</text>
</g>
<!-- ApplicationController&#45;&gt;AppointmentsController -->
<g id="edge2" class="edge"><title>ApplicationController&#45;&gt;AppointmentsController</title>
<path fill="none" stroke="black" d="M578.518,-469.622C543.737,-401.228 495.99,-307.337 458.503,-233.62"/>
</g>
<!-- CommunicationsController -->
<g id="node8" class="node"><title>CommunicationsController</title>
<path fill="none" stroke="black" d="M58.0207,-954.061C58.0207,-954.061 243.655,-954.061 243.655,-954.061 249.655,-954.061 255.655,-960.061 255.655,-966.061 255.655,-966.061 255.655,-1258.86 255.655,-1258.86 255.655,-1264.86 249.655,-1270.86 243.655,-1270.86 243.655,-1270.86 58.0207,-1270.86 58.0207,-1270.86 52.0207,-1270.86 46.0207,-1264.86 46.0207,-1258.86 46.0207,-1258.86 46.0207,-966.061 46.0207,-966.061 46.0207,-960.061 52.0207,-954.061 58.0207,-954.061"/>
<text text-anchor="middle" x="150.838" y="-1252.86" font-family="Times,serif" font-size="14.00">CommunicationsController</text>
<polyline fill="none" stroke="black" points="46.0207,-1246.06 255.655,-1246.06 "/>
<text text-anchor="start" x="54.0207" y="-1228.06" font-family="Times,serif" font-size="14.00">_callback_before_339</text>
<text text-anchor="start" x="54.0207" y="-1211.26" font-family="Times,serif" font-size="14.00">_one_time_conditions_valid_338?</text>
<text text-anchor="start" x="54.0207" y="-1194.46" font-family="Times,serif" font-size="14.00">_one_time_conditions_valid_340?</text>
<text text-anchor="start" x="54.0207" y="-1177.66" font-family="Times,serif" font-size="14.00">_one_time_conditions_valid_342?</text>
<text text-anchor="start" x="54.0207" y="-1160.86" font-family="Times,serif" font-size="14.00">create</text>
<text text-anchor="start" x="54.0207" y="-1144.06" font-family="Times,serif" font-size="14.00">destroy</text>
<text text-anchor="start" x="54.0207" y="-1127.26" font-family="Times,serif" font-size="14.00">edit</text>
<text text-anchor="start" x="54.0207" y="-1110.46" font-family="Times,serif" font-size="14.00">index</text>
<text text-anchor="start" x="54.0207" y="-1093.66" font-family="Times,serif" font-size="14.00">new</text>
<text text-anchor="start" x="54.0207" y="-1076.86" font-family="Times,serif" font-size="14.00">show</text>
<text text-anchor="start" x="54.0207" y="-1060.06" font-family="Times,serif" font-size="14.00">start</text>
<text text-anchor="start" x="54.0207" y="-1043.26" font-family="Times,serif" font-size="14.00">start_form</text>
<text text-anchor="start" x="54.0207" y="-1026.46" font-family="Times,serif" font-size="14.00">update</text>
<polyline fill="none" stroke="black" points="46.0207,-1019.66 255.655,-1019.66 "/>
<polyline fill="none" stroke="black" points="46.0207,-995.661 255.655,-995.661 "/>
<text text-anchor="start" x="54.0207" y="-977.661" font-family="Times,serif" font-size="14.00">_layout</text>
<text text-anchor="start" x="54.0207" y="-960.861" font-family="Times,serif" font-size="14.00">check_mobile</text>
</g>
<!-- ApplicationController&#45;&gt;CommunicationsController -->
<g id="edge3" class="edge"><title>ApplicationController&#45;&gt;CommunicationsController</title>
<path fill="none" stroke="black" d="M567.757,-653.448C554.337,-676.697 540.696,-701.921 529.455,-726.041 507.216,-773.762 519.831,-794.569 489.372,-837.513 427.28,-925.054 330.157,-999.949 255.834,-1049.36"/>
</g>
<!-- ContactsController -->
<g id="node9" class="node"><title>ContactsController</title>
<path fill="none" stroke="black" d="M544.655,-729.241C544.655,-729.241 730.29,-729.241 730.29,-729.241 736.29,-729.241 742.29,-735.241 742.29,-741.241 742.29,-741.241 742.29,-966.841 742.29,-966.841 742.29,-972.841 736.29,-978.841 730.29,-978.841 730.29,-978.841 544.655,-978.841 544.655,-978.841 538.655,-978.841 532.655,-972.841 532.655,-966.841 532.655,-966.841 532.655,-741.241 532.655,-741.241 532.655,-735.241 538.655,-729.241 544.655,-729.241"/>
<text text-anchor="middle" x="637.473" y="-960.841" font-family="Times,serif" font-size="14.00">ContactsController</text>
<polyline fill="none" stroke="black" points="532.655,-954.041 742.29,-954.041 "/>
<text text-anchor="start" x="540.655" y="-936.041" font-family="Times,serif" font-size="14.00">_callback_before_347</text>
<text text-anchor="start" x="540.655" y="-919.241" font-family="Times,serif" font-size="14.00">_one_time_conditions_valid_346?</text>
<text text-anchor="start" x="540.655" y="-902.441" font-family="Times,serif" font-size="14.00">_one_time_conditions_valid_348?</text>
<text text-anchor="start" x="540.655" y="-885.641" font-family="Times,serif" font-size="14.00">create</text>
<text text-anchor="start" x="540.655" y="-868.841" font-family="Times,serif" font-size="14.00">destroy</text>
<text text-anchor="start" x="540.655" y="-852.041" font-family="Times,serif" font-size="14.00">edit</text>
<text text-anchor="start" x="540.655" y="-835.241" font-family="Times,serif" font-size="14.00">index</text>
<text text-anchor="start" x="540.655" y="-818.441" font-family="Times,serif" font-size="14.00">new</text>
<text text-anchor="start" x="540.655" y="-801.641" font-family="Times,serif" font-size="14.00">show</text>
<text text-anchor="start" x="540.655" y="-784.841" font-family="Times,serif" font-size="14.00">update</text>
<polyline fill="none" stroke="black" points="532.655,-778.041 742.29,-778.041 "/>
<polyline fill="none" stroke="black" points="532.655,-754.041 742.29,-754.041 "/>
<text text-anchor="start" x="540.655" y="-736.041" font-family="Times,serif" font-size="14.00">_layout</text>
</g>
<!-- ApplicationController&#45;&gt;ContactsController -->
<g id="edge4" class="edge"><title>ApplicationController&#45;&gt;ContactsController</title>
<path fill="none" stroke="black" d="M629.066,-653.237C630.073,-677.285 631.175,-703.627 632.241,-729.088"/>
</g>
<!-- DashboardController -->
<g id="node10" class="node"><title>DashboardController</title>
<path fill="none" stroke="black" d="M288.537,-702.313C288.537,-702.313 474.172,-702.313 474.172,-702.313 480.172,-702.313 486.172,-708.313 486.172,-714.313 486.172,-714.313 486.172,-822.313 486.172,-822.313 486.172,-828.313 480.172,-834.313 474.172,-834.313 474.172,-834.313 288.537,-834.313 288.537,-834.313 282.537,-834.313 276.537,-828.313 276.537,-822.313 276.537,-822.313 276.537,-714.313 276.537,-714.313 276.537,-708.313 282.537,-702.313 288.537,-702.313"/>
<text text-anchor="middle" x="381.355" y="-816.313" font-family="Times,serif" font-size="14.00">DashboardController</text>
<polyline fill="none" stroke="black" points="276.537,-809.513 486.172,-809.513 "/>
<text text-anchor="start" x="284.537" y="-791.513" font-family="Times,serif" font-size="14.00">_one_time_conditions_valid_350?</text>
<text text-anchor="start" x="284.537" y="-774.713" font-family="Times,serif" font-size="14.00">index</text>
<text text-anchor="start" x="284.537" y="-757.913" font-family="Times,serif" font-size="14.00">subscription</text>
<polyline fill="none" stroke="black" points="276.537,-751.113 486.172,-751.113 "/>
<polyline fill="none" stroke="black" points="276.537,-727.113 486.172,-727.113 "/>
<text text-anchor="start" x="284.537" y="-709.113" font-family="Times,serif" font-size="14.00">_layout</text>
</g>
<!-- ApplicationController&#45;&gt;DashboardController -->
<g id="edge5" class="edge"><title>ApplicationController&#45;&gt;DashboardController</title>
<path fill="none" stroke="black" d="M523.567,-647.691C502.133,-665.87 479.84,-684.779 459.436,-702.085"/>
</g>
<!-- JobsController -->
<g id="node11" class="node"><title>JobsController</title>
<path fill="none" stroke="black" d="M18.7511,-46.7779C18.7511,-46.7779 204.386,-46.7779 204.386,-46.7779 210.386,-46.7779 216.386,-52.7779 216.386,-58.7779 216.386,-58.7779 216.386,-267.578 216.386,-267.578 216.386,-273.578 210.386,-279.578 204.386,-279.578 204.386,-279.578 18.7511,-279.578 18.7511,-279.578 12.7511,-279.578 6.75111,-273.578 6.75111,-267.578 6.75111,-267.578 6.75111,-58.7779 6.75111,-58.7779 6.75111,-52.7779 12.7511,-46.7779 18.7511,-46.7779"/>
<text text-anchor="middle" x="111.568" y="-261.578" font-family="Times,serif" font-size="14.00">JobsController</text>
<polyline fill="none" stroke="black" points="6.75111,-254.778 216.386,-254.778 "/>
<text text-anchor="start" x="14.7511" y="-236.778" font-family="Times,serif" font-size="14.00">_callback_before_351</text>
<text text-anchor="start" x="14.7511" y="-219.978" font-family="Times,serif" font-size="14.00">_one_time_conditions_valid_352?</text>
<text text-anchor="start" x="14.7511" y="-203.178" font-family="Times,serif" font-size="14.00">_one_time_conditions_valid_354?</text>
<text text-anchor="start" x="14.7511" y="-186.378" font-family="Times,serif" font-size="14.00">create</text>
<text text-anchor="start" x="14.7511" y="-169.578" font-family="Times,serif" font-size="14.00">destroy</text>
<text text-anchor="start" x="14.7511" y="-152.778" font-family="Times,serif" font-size="14.00">index</text>
<text text-anchor="start" x="14.7511" y="-135.978" font-family="Times,serif" font-size="14.00">modal</text>
<text text-anchor="start" x="14.7511" y="-119.178" font-family="Times,serif" font-size="14.00">update</text>
<polyline fill="none" stroke="black" points="6.75111,-112.378 216.386,-112.378 "/>
<polyline fill="none" stroke="black" points="6.75111,-88.3779 216.386,-88.3779 "/>
<text text-anchor="start" x="14.7511" y="-70.3779" font-family="Times,serif" font-size="14.00">_layout</text>
<text text-anchor="start" x="14.7511" y="-53.5779" font-family="Times,serif" font-size="14.00">apply_date_range</text>
</g>
<!-- ApplicationController&#45;&gt;JobsController -->
<g id="edge6" class="edge"><title>ApplicationController&#45;&gt;JobsController</title>
<path fill="none" stroke="black" d="M595.201,-469.696C574.857,-419.766 543.484,-360.161 499.015,-319.925 425.193,-253.13 383.411,-273.857 291.13,-236.5 266.941,-226.708 240.941,-216.124 216.443,-206.127"/>
</g>
<!-- LeadSourcesController -->
<g id="node12" class="node"><title>LeadSourcesController</title>
<path fill="none" stroke="black" d="M803.997,-333.263C803.997,-333.263 989.632,-333.263 989.632,-333.263 995.632,-333.263 1001.63,-339.263 1001.63,-345.263 1001.63,-345.263 1001.63,-570.863 1001.63,-570.863 1001.63,-576.863 995.632,-582.863 989.632,-582.863 989.632,-582.863 803.997,-582.863 803.997,-582.863 797.997,-582.863 791.997,-576.863 791.997,-570.863 791.997,-570.863 791.997,-345.263 791.997,-345.263 791.997,-339.263 797.997,-333.263 803.997,-333.263"/>
<text text-anchor="middle" x="896.815" y="-564.863" font-family="Times,serif" font-size="14.00">LeadSourcesController</text>
<polyline fill="none" stroke="black" points="791.997,-558.063 1001.63,-558.063 "/>
<text text-anchor="start" x="799.997" y="-540.063" font-family="Times,serif" font-size="14.00">_callback_before_357</text>
<text text-anchor="start" x="799.997" y="-523.263" font-family="Times,serif" font-size="14.00">_one_time_conditions_valid_356?</text>
<text text-anchor="start" x="799.997" y="-506.463" font-family="Times,serif" font-size="14.00">_one_time_conditions_valid_358?</text>
<text text-anchor="start" x="799.997" y="-489.663" font-family="Times,serif" font-size="14.00">create</text>
<text text-anchor="start" x="799.997" y="-472.863" font-family="Times,serif" font-size="14.00">destroy</text>
<text text-anchor="start" x="799.997" y="-456.063" font-family="Times,serif" font-size="14.00">edit</text>
<text text-anchor="start" x="799.997" y="-439.263" font-family="Times,serif" font-size="14.00">index</text>
<text text-anchor="start" x="799.997" y="-422.463" font-family="Times,serif" font-size="14.00">new</text>
<text text-anchor="start" x="799.997" y="-405.663" font-family="Times,serif" font-size="14.00">show</text>
<text text-anchor="start" x="799.997" y="-388.863" font-family="Times,serif" font-size="14.00">update</text>
<polyline fill="none" stroke="black" points="791.997,-382.063 1001.63,-382.063 "/>
<polyline fill="none" stroke="black" points="791.997,-358.063 1001.63,-358.063 "/>
<text text-anchor="start" x="799.997" y="-340.063" font-family="Times,serif" font-size="14.00">_layout</text>
</g>
<!-- ApplicationController&#45;&gt;LeadSourcesController -->
<g id="edge7" class="edge"><title>ApplicationController&#45;&gt;LeadSourcesController</title>
<path fill="none" stroke="black" d="M726.74,-522.816C747.984,-514.728 770.426,-506.184 791.795,-498.048"/>
</g>
<!-- LeadsController -->
<g id="node13" class="node"><title>LeadsController</title>
<path fill="none" stroke="black" d="M298.18,-323.125C298.18,-323.125 483.815,-323.125 483.815,-323.125 489.815,-323.125 495.815,-329.125 495.815,-335.125 495.815,-335.125 495.815,-543.925 495.815,-543.925 495.815,-549.925 489.815,-555.925 483.815,-555.925 483.815,-555.925 298.18,-555.925 298.18,-555.925 292.18,-555.925 286.18,-549.925 286.18,-543.925 286.18,-543.925 286.18,-335.125 286.18,-335.125 286.18,-329.125 292.18,-323.125 298.18,-323.125"/>
<text text-anchor="middle" x="390.998" y="-537.925" font-family="Times,serif" font-size="14.00">LeadsController</text>
<polyline fill="none" stroke="black" points="286.18,-531.125 495.815,-531.125 "/>
<text text-anchor="start" x="294.18" y="-513.125" font-family="Times,serif" font-size="14.00">_callback_before_361</text>
<text text-anchor="start" x="294.18" y="-496.325" font-family="Times,serif" font-size="14.00">_one_time_conditions_valid_360?</text>
<text text-anchor="start" x="294.18" y="-479.525" font-family="Times,serif" font-size="14.00">_one_time_conditions_valid_362?</text>
<text text-anchor="start" x="294.18" y="-462.725" font-family="Times,serif" font-size="14.00">export</text>
<text text-anchor="start" x="294.18" y="-445.925" font-family="Times,serif" font-size="14.00">import</text>
<text text-anchor="start" x="294.18" y="-429.125" font-family="Times,serif" font-size="14.00">index</text>
<text text-anchor="start" x="294.18" y="-412.325" font-family="Times,serif" font-size="14.00">new</text>
<text text-anchor="start" x="294.18" y="-395.525" font-family="Times,serif" font-size="14.00">print</text>
<polyline fill="none" stroke="black" points="286.18,-388.725 495.815,-388.725 "/>
<polyline fill="none" stroke="black" points="286.18,-364.725 495.815,-364.725 "/>
<text text-anchor="start" x="294.18" y="-346.725" font-family="Times,serif" font-size="14.00">_layout</text>
<text text-anchor="start" x="294.18" y="-329.925" font-family="Times,serif" font-size="14.00">generate_csv</text>
</g>
<!-- ApplicationController&#45;&gt;LeadsController -->
<g id="edge8" class="edge"><title>ApplicationController&#45;&gt;LeadsController</title>
<path fill="none" stroke="black" d="M523.851,-508.691C514.578,-503.863 505.171,-498.966 495.869,-494.123"/>
</g>
<!-- OrganizationsController -->
<g id="node14" class="node"><title>OrganizationsController</title>
<path fill="none" stroke="black" d="M802.695,-25.0569C802.695,-25.0569 988.33,-25.0569 988.33,-25.0569 994.33,-25.0569 1000.33,-31.0569 1000.33,-37.0569 1000.33,-37.0569 1000.33,-229.057 1000.33,-229.057 1000.33,-235.057 994.33,-241.057 988.33,-241.057 988.33,-241.057 802.695,-241.057 802.695,-241.057 796.695,-241.057 790.695,-235.057 790.695,-229.057 790.695,-229.057 790.695,-37.0569 790.695,-37.0569 790.695,-31.0569 796.695,-25.0569 802.695,-25.0569"/>
<text text-anchor="middle" x="895.512" y="-223.057" font-family="Times,serif" font-size="14.00">OrganizationsController</text>
<polyline fill="none" stroke="black" points="790.695,-216.257 1000.33,-216.257 "/>
<text text-anchor="start" x="798.695" y="-198.257" font-family="Times,serif" font-size="14.00">_one_time_conditions_valid_366?</text>
<text text-anchor="start" x="798.695" y="-181.457" font-family="Times,serif" font-size="14.00">create</text>
<text text-anchor="start" x="798.695" y="-164.657" font-family="Times,serif" font-size="14.00">destroy</text>
<text text-anchor="start" x="798.695" y="-147.857" font-family="Times,serif" font-size="14.00">edit</text>
<text text-anchor="start" x="798.695" y="-131.057" font-family="Times,serif" font-size="14.00">index</text>
<text text-anchor="start" x="798.695" y="-114.257" font-family="Times,serif" font-size="14.00">new</text>
<text text-anchor="start" x="798.695" y="-97.4569" font-family="Times,serif" font-size="14.00">show</text>
<text text-anchor="start" x="798.695" y="-80.6569" font-family="Times,serif" font-size="14.00">update</text>
<polyline fill="none" stroke="black" points="790.695,-73.8569 1000.33,-73.8569 "/>
<polyline fill="none" stroke="black" points="790.695,-49.8569 1000.33,-49.8569 "/>
<text text-anchor="start" x="798.695" y="-31.8569" font-family="Times,serif" font-size="14.00">_layout</text>
</g>
<!-- ApplicationController&#45;&gt;OrganizationsController -->
<g id="edge9" class="edge"><title>ApplicationController&#45;&gt;OrganizationsController</title>
<path fill="none" stroke="black" d="M683.041,-469.826C725.3,-402.845 782.762,-311.767 827.274,-241.216"/>
</g>
<!-- Owner::BaseController -->
<g id="node15" class="node"><title>Owner::BaseController</title>
<path fill="none" stroke="black" d="M541.227,-144.253C541.227,-144.253 726.861,-144.253 726.861,-144.253 732.861,-144.253 738.861,-150.253 738.861,-156.253 738.861,-156.253 738.861,-247.453 738.861,-247.453 738.861,-253.453 732.861,-259.453 726.861,-259.453 726.861,-259.453 541.227,-259.453 541.227,-259.453 535.227,-259.453 529.227,-253.453 529.227,-247.453 529.227,-247.453 529.227,-156.253 529.227,-156.253 529.227,-150.253 535.227,-144.253 541.227,-144.253"/>
<text text-anchor="middle" x="634.044" y="-241.453" font-family="Times,serif" font-size="14.00">Owner::BaseController</text>
<polyline fill="none" stroke="black" points="529.227,-234.653 738.861,-234.653 "/>
<text text-anchor="start" x="537.227" y="-216.653" font-family="Times,serif" font-size="14.00">_one_time_conditions_valid_368?</text>
<polyline fill="none" stroke="black" points="529.227,-209.853 738.861,-209.853 "/>
<polyline fill="none" stroke="black" points="529.227,-185.853 738.861,-185.853 "/>
<text text-anchor="start" x="537.227" y="-167.853" font-family="Times,serif" font-size="14.00">_layout</text>
<text text-anchor="start" x="537.227" y="-151.053" font-family="Times,serif" font-size="14.00">verify_owner</text>
</g>
<!-- ApplicationController&#45;&gt;Owner::BaseController -->
<g id="edge10" class="edge"><title>ApplicationController&#45;&gt;Owner::BaseController</title>
<path fill="none" stroke="black" d="M627.472,-469.791C629.095,-403.617 631.237,-316.284 632.627,-259.603"/>
</g>
<!-- QuotesController -->
<g id="node20" class="node"><title>QuotesController</title>
<path fill="none" stroke="black" d="M12,-667.786C12,-667.786 197.635,-667.786 197.635,-667.786 203.635,-667.786 209.635,-673.786 209.635,-679.786 209.635,-679.786 209.635,-922.186 209.635,-922.186 209.635,-928.186 203.635,-934.186 197.635,-934.186 197.635,-934.186 12,-934.186 12,-934.186 6,-934.186 0,-928.186 0,-922.186 0,-922.186 0,-679.786 0,-679.786 0,-673.786 6,-667.786 12,-667.786"/>
<text text-anchor="middle" x="104.817" y="-916.186" font-family="Times,serif" font-size="14.00">QuotesController</text>
<polyline fill="none" stroke="black" points="0,-909.386 209.635,-909.386 "/>
<text text-anchor="start" x="8" y="-891.386" font-family="Times,serif" font-size="14.00">_callback_before_381</text>
<text text-anchor="start" x="8" y="-874.586" font-family="Times,serif" font-size="14.00">_one_time_conditions_valid_378?</text>
<text text-anchor="start" x="8" y="-857.786" font-family="Times,serif" font-size="14.00">_one_time_conditions_valid_380?</text>
<text text-anchor="start" x="8" y="-840.986" font-family="Times,serif" font-size="14.00">_one_time_conditions_valid_382?</text>
<text text-anchor="start" x="8" y="-824.186" font-family="Times,serif" font-size="14.00">create</text>
<text text-anchor="start" x="8" y="-807.386" font-family="Times,serif" font-size="14.00">destroy</text>
<text text-anchor="start" x="8" y="-790.586" font-family="Times,serif" font-size="14.00">edit</text>
<text text-anchor="start" x="8" y="-773.786" font-family="Times,serif" font-size="14.00">index</text>
<text text-anchor="start" x="8" y="-756.986" font-family="Times,serif" font-size="14.00">new</text>
<text text-anchor="start" x="8" y="-740.186" font-family="Times,serif" font-size="14.00">update</text>
<polyline fill="none" stroke="black" points="0,-733.386 209.635,-733.386 "/>
<polyline fill="none" stroke="black" points="0,-709.386 209.635,-709.386 "/>
<text text-anchor="start" x="8" y="-691.386" font-family="Times,serif" font-size="14.00">_layout</text>
<text text-anchor="start" x="8" y="-674.586" font-family="Times,serif" font-size="14.00">verify_admin</text>
</g>
<!-- ApplicationController&#45;&gt;QuotesController -->
<g id="edge11" class="edge"><title>ApplicationController&#45;&gt;QuotesController</title>
<path fill="none" stroke="black" d="M523.531,-596.024C452.172,-621.525 355.257,-658.699 273.337,-699.113 252.336,-709.473 230.507,-721.583 209.799,-733.765"/>
</g>
<!-- StripeCallbacksController -->
<g id="node22" class="node"><title>StripeCallbacksController</title>
<path fill="none" stroke="black" d="M824.077,-640.517C824.077,-640.517 994.153,-640.517 994.153,-640.517 1000.15,-640.517 1006.15,-646.517 1006.15,-652.517 1006.15,-652.517 1006.15,-878.117 1006.15,-878.117 1006.15,-884.117 1000.15,-890.117 994.153,-890.117 994.153,-890.117 824.077,-890.117 824.077,-890.117 818.077,-890.117 812.077,-884.117 812.077,-878.117 812.077,-878.117 812.077,-652.517 812.077,-652.517 812.077,-646.517 818.077,-640.517 824.077,-640.517"/>
<text text-anchor="middle" x="909.115" y="-872.117" font-family="Times,serif" font-size="14.00">StripeCallbacksController</text>
<polyline fill="none" stroke="black" points="812.077,-865.317 1006.15,-865.317 "/>
<text text-anchor="start" x="820.077" y="-847.317" font-family="Times,serif" font-size="14.00">create</text>
<polyline fill="none" stroke="black" points="812.077,-840.517 1006.15,-840.517 "/>
<polyline fill="none" stroke="black" points="812.077,-816.517 1006.15,-816.517 "/>
<text text-anchor="start" x="820.077" y="-798.517" font-family="Times,serif" font-size="14.00">_layout</text>
<text text-anchor="start" x="820.077" y="-781.717" font-family="Times,serif" font-size="14.00">charge_dispute_created</text>
<text text-anchor="start" x="820.077" y="-764.917" font-family="Times,serif" font-size="14.00">charge_failed</text>
<text text-anchor="start" x="820.077" y="-748.117" font-family="Times,serif" font-size="14.00">charge_succeeded</text>
<text text-anchor="start" x="820.077" y="-731.317" font-family="Times,serif" font-size="14.00">customer_subscription_created</text>
<text text-anchor="start" x="820.077" y="-714.517" font-family="Times,serif" font-size="14.00">customer_subscription_deleted</text>
<text text-anchor="start" x="820.077" y="-697.717" font-family="Times,serif" font-size="14.00">customer_subscription_updated</text>
<text text-anchor="start" x="820.077" y="-680.917" font-family="Times,serif" font-size="14.00">invoice_payment_failed</text>
<text text-anchor="start" x="820.077" y="-664.117" font-family="Times,serif" font-size="14.00">invoice_payment_succeeded</text>
<text text-anchor="start" x="820.077" y="-647.317" font-family="Times,serif" font-size="14.00">respond_ok</text>
</g>
<!-- ApplicationController&#45;&gt;StripeCallbacksController -->
<g id="edge12" class="edge"><title>ApplicationController&#45;&gt;StripeCallbacksController</title>
<path fill="none" stroke="black" d="M726.913,-634.486C754.597,-654.364 784.507,-675.842 811.934,-695.536"/>
</g>
<!-- SubscriptionsController -->
<g id="node23" class="node"><title>SubscriptionsController</title>
<path fill="none" stroke="black" d="M775.143,-1036.36C775.143,-1036.36 960.777,-1036.36 960.777,-1036.36 966.777,-1036.36 972.777,-1042.36 972.777,-1048.36 972.777,-1048.36 972.777,-1173.16 972.777,-1173.16 972.777,-1179.16 966.777,-1185.16 960.777,-1185.16 960.777,-1185.16 775.143,-1185.16 775.143,-1185.16 769.143,-1185.16 763.143,-1179.16 763.143,-1173.16 763.143,-1173.16 763.143,-1048.36 763.143,-1048.36 763.143,-1042.36 769.143,-1036.36 775.143,-1036.36"/>
<text text-anchor="middle" x="867.96" y="-1167.16" font-family="Times,serif" font-size="14.00">SubscriptionsController</text>
<polyline fill="none" stroke="black" points="763.143,-1160.36 972.777,-1160.36 "/>
<text text-anchor="start" x="771.143" y="-1142.36" font-family="Times,serif" font-size="14.00">_one_time_conditions_valid_396?</text>
<text text-anchor="start" x="771.143" y="-1125.56" font-family="Times,serif" font-size="14.00">destroy</text>
<text text-anchor="start" x="771.143" y="-1108.76" font-family="Times,serif" font-size="14.00">edit</text>
<text text-anchor="start" x="771.143" y="-1091.96" font-family="Times,serif" font-size="14.00">update</text>
<polyline fill="none" stroke="black" points="763.143,-1085.16 972.777,-1085.16 "/>
<polyline fill="none" stroke="black" points="763.143,-1061.16 972.777,-1061.16 "/>
<text text-anchor="start" x="771.143" y="-1043.16" font-family="Times,serif" font-size="14.00">_layout</text>
</g>
<!-- ApplicationController&#45;&gt;SubscriptionsController -->
<g id="edge13" class="edge"><title>ApplicationController&#45;&gt;SubscriptionsController</title>
<path fill="none" stroke="black" d="M700.368,-653.381C716.748,-676.215 732.918,-701.269 745.49,-726.041 773.247,-780.733 820.285,-940.431 847.273,-1036.01"/>
</g>
<!-- UsersController -->
<g id="node24" class="node"><title>UsersController</title>
<path fill="none" stroke="black" d="M455.711,-1071.42C455.711,-1071.42 537.139,-1071.42 537.139,-1071.42 543.139,-1071.42 549.139,-1077.42 549.139,-1083.42 549.139,-1083.42 549.139,-1157.82 549.139,-1157.82 549.139,-1163.82 543.139,-1169.82 537.139,-1169.82 537.139,-1169.82 455.711,-1169.82 455.711,-1169.82 449.711,-1169.82 443.711,-1163.82 443.711,-1157.82 443.711,-1157.82 443.711,-1083.42 443.711,-1083.42 443.711,-1077.42 449.711,-1071.42 455.711,-1071.42"/>
<text text-anchor="middle" x="496.425" y="-1151.82" font-family="Times,serif" font-size="14.00">UsersController</text>
<polyline fill="none" stroke="black" points="443.711,-1145.02 549.139,-1145.02 "/>
<text text-anchor="start" x="451.711" y="-1127.02" font-family="Times,serif" font-size="14.00">index</text>
<polyline fill="none" stroke="black" points="443.711,-1120.22 549.139,-1120.22 "/>
<polyline fill="none" stroke="black" points="443.711,-1096.22 549.139,-1096.22 "/>
<text text-anchor="start" x="451.711" y="-1078.22" font-family="Times,serif" font-size="14.00">_layout</text>
</g>
<!-- ApplicationController&#45;&gt;UsersController -->
<g id="edge14" class="edge"><title>ApplicationController&#45;&gt;UsersController</title>
<path fill="none" stroke="black" d="M562.196,-653.412C549.276,-676.245 537.255,-701.291 529.455,-726.041 491.75,-845.698 491.018,-995.283 493.706,-1071.31"/>
</g>
<!-- Owner::CrewsController -->
<g id="node16" class="node"><title>Owner::CrewsController</title>
<path fill="none" stroke="black" d="M1044,-946.5C1044,-946.5 1229.63,-946.5 1229.63,-946.5 1235.63,-946.5 1241.63,-952.5 1241.63,-958.5 1241.63,-958.5 1241.63,-1150.5 1241.63,-1150.5 1241.63,-1156.5 1235.63,-1162.5 1229.63,-1162.5 1229.63,-1162.5 1044,-1162.5 1044,-1162.5 1038,-1162.5 1032,-1156.5 1032,-1150.5 1032,-1150.5 1032,-958.5 1032,-958.5 1032,-952.5 1038,-946.5 1044,-946.5"/>
<text text-anchor="middle" x="1136.82" y="-1144.5" font-family="Times,serif" font-size="14.00">Owner::CrewsController</text>
<polyline fill="none" stroke="black" points="1032,-1137.7 1241.63,-1137.7 "/>
<text text-anchor="start" x="1040" y="-1119.7" font-family="Times,serif" font-size="14.00">_callback_before_369</text>
<text text-anchor="start" x="1040" y="-1102.9" font-family="Times,serif" font-size="14.00">_one_time_conditions_valid_370?</text>
<text text-anchor="start" x="1040" y="-1086.1" font-family="Times,serif" font-size="14.00">create</text>
<text text-anchor="start" x="1040" y="-1069.3" font-family="Times,serif" font-size="14.00">edit</text>
<text text-anchor="start" x="1040" y="-1052.5" font-family="Times,serif" font-size="14.00">index</text>
<text text-anchor="start" x="1040" y="-1035.7" font-family="Times,serif" font-size="14.00">new</text>
<text text-anchor="start" x="1040" y="-1018.9" font-family="Times,serif" font-size="14.00">show</text>
<text text-anchor="start" x="1040" y="-1002.1" font-family="Times,serif" font-size="14.00">update</text>
<polyline fill="none" stroke="black" points="1032,-995.3 1241.63,-995.3 "/>
<polyline fill="none" stroke="black" points="1032,-971.3 1241.63,-971.3 "/>
<text text-anchor="start" x="1040" y="-953.3" font-family="Times,serif" font-size="14.00">_layout</text>
</g>
<!-- Owner::EmailTemplatesController -->
<g id="node17" class="node"><title>Owner::EmailTemplatesController</title>
<path fill="none" stroke="black" d="M1087,-387.5C1087,-387.5 1273.19,-387.5 1273.19,-387.5 1279.19,-387.5 1285.19,-393.5 1285.19,-399.5 1285.19,-399.5 1285.19,-541.1 1285.19,-541.1 1285.19,-547.1 1279.19,-553.1 1273.19,-553.1 1273.19,-553.1 1087,-553.1 1087,-553.1 1081,-553.1 1075,-547.1 1075,-541.1 1075,-541.1 1075,-399.5 1075,-399.5 1075,-393.5 1081,-387.5 1087,-387.5"/>
<text text-anchor="middle" x="1180.09" y="-535.1" font-family="Times,serif" font-size="14.00">Owner::EmailTemplatesController</text>
<polyline fill="none" stroke="black" points="1075,-528.3 1285.19,-528.3 "/>
<text text-anchor="start" x="1083" y="-510.3" font-family="Times,serif" font-size="14.00">_callback_before_371</text>
<text text-anchor="start" x="1083" y="-493.5" font-family="Times,serif" font-size="14.00">_one_time_conditions_valid_372?</text>
<text text-anchor="start" x="1083" y="-476.7" font-family="Times,serif" font-size="14.00">destroy</text>
<text text-anchor="start" x="1083" y="-459.9" font-family="Times,serif" font-size="14.00">index</text>
<text text-anchor="start" x="1083" y="-443.1" font-family="Times,serif" font-size="14.00">update</text>
<polyline fill="none" stroke="black" points="1075,-436.3 1285.19,-436.3 "/>
<polyline fill="none" stroke="black" points="1075,-412.3 1285.19,-412.3 "/>
<text text-anchor="start" x="1083" y="-394.3" font-family="Times,serif" font-size="14.00">_layout</text>
</g>
<!-- Owner::UsersController -->
<g id="node18" class="node"><title>Owner::UsersController</title>
<path fill="none" stroke="black" d="M1087,-645.5C1087,-645.5 1272.63,-645.5 1272.63,-645.5 1278.63,-645.5 1284.63,-651.5 1284.63,-657.5 1284.63,-657.5 1284.63,-799.1 1284.63,-799.1 1284.63,-805.1 1278.63,-811.1 1272.63,-811.1 1272.63,-811.1 1087,-811.1 1087,-811.1 1081,-811.1 1075,-805.1 1075,-799.1 1075,-799.1 1075,-657.5 1075,-657.5 1075,-651.5 1081,-645.5 1087,-645.5"/>
<text text-anchor="middle" x="1179.82" y="-793.1" font-family="Times,serif" font-size="14.00">Owner::UsersController</text>
<polyline fill="none" stroke="black" points="1075,-786.3 1284.63,-786.3 "/>
<text text-anchor="start" x="1083" y="-768.3" font-family="Times,serif" font-size="14.00">_callback_before_373</text>
<text text-anchor="start" x="1083" y="-751.5" font-family="Times,serif" font-size="14.00">_one_time_conditions_valid_374?</text>
<text text-anchor="start" x="1083" y="-734.7" font-family="Times,serif" font-size="14.00">create</text>
<text text-anchor="start" x="1083" y="-717.9" font-family="Times,serif" font-size="14.00">index</text>
<text text-anchor="start" x="1083" y="-701.1" font-family="Times,serif" font-size="14.00">new</text>
<polyline fill="none" stroke="black" points="1075,-694.3 1284.63,-694.3 "/>
<polyline fill="none" stroke="black" points="1075,-670.3 1284.63,-670.3 "/>
<text text-anchor="start" x="1083" y="-652.3" font-family="Times,serif" font-size="14.00">_layout</text>
</g>
<!-- PagesController -->
<g id="node19" class="node"><title>PagesController</title>
<path fill="none" stroke="black" d="M528,-1247.5C528,-1247.5 713.635,-1247.5 713.635,-1247.5 719.635,-1247.5 725.635,-1253.5 725.635,-1259.5 725.635,-1259.5 725.635,-1350.7 725.635,-1350.7 725.635,-1356.7 719.635,-1362.7 713.635,-1362.7 713.635,-1362.7 528,-1362.7 528,-1362.7 522,-1362.7 516,-1356.7 516,-1350.7 516,-1350.7 516,-1259.5 516,-1259.5 516,-1253.5 522,-1247.5 528,-1247.5"/>
<text text-anchor="middle" x="620.817" y="-1344.7" font-family="Times,serif" font-size="14.00">PagesController</text>
<polyline fill="none" stroke="black" points="516,-1337.9 725.635,-1337.9 "/>
<text text-anchor="start" x="524" y="-1319.9" font-family="Times,serif" font-size="14.00">_one_time_conditions_valid_376?</text>
<text text-anchor="start" x="524" y="-1303.1" font-family="Times,serif" font-size="14.00">layout_for_page</text>
<polyline fill="none" stroke="black" points="516,-1296.3 725.635,-1296.3 "/>
<polyline fill="none" stroke="black" points="516,-1272.3 725.635,-1272.3 "/>
<text text-anchor="start" x="524" y="-1254.3" font-family="Times,serif" font-size="14.00">_layout</text>
</g>
<!-- SessionsController -->
<g id="node21" class="node"><title>SessionsController</title>
<path fill="none" stroke="black" d="M571,-0.5C571,-0.5 668.779,-0.5 668.779,-0.5 674.779,-0.5 680.779,-6.5 680.779,-12.5 680.779,-12.5 680.779,-86.1 680.779,-86.1 680.779,-92.1 674.779,-98.1 668.779,-98.1 668.779,-98.1 571,-98.1 571,-98.1 565,-98.1 559,-92.1 559,-86.1 559,-86.1 559,-12.5 559,-12.5 559,-6.5 565,-0.5 571,-0.5"/>
<text text-anchor="middle" x="619.89" y="-80.1" font-family="Times,serif" font-size="14.00">SessionsController</text>
<polyline fill="none" stroke="black" points="559,-73.3 680.779,-73.3 "/>
<polyline fill="none" stroke="black" points="559,-49.3 680.779,-49.3 "/>
<polyline fill="none" stroke="black" points="559,-25.3 680.779,-25.3 "/>
<text text-anchor="start" x="567" y="-7.3" font-family="Times,serif" font-size="14.00">_layout</text>
</g>
</g>
</svg>
