<?xml version="1.0" encoding="UTF-8" standalone="no"?>
<!DOCTYPE svg PUBLIC "-//W3C//DTD SVG 1.1//EN"
 "http://www.w3.org/Graphics/SVG/1.1/DTD/svg11.dtd">
<!-- Generated by graphviz version 2.30.1 (20130530.1301)
 -->
<!-- Title: models_diagram Pages: 1 -->
<svg width="986pt" height="382pt"
 viewBox="0.00 0.00 986.00 382.00" xmlns="http://www.w3.org/2000/svg" xmlns:xlink="http://www.w3.org/1999/xlink">
<g id="graph0" class="graph" transform="scale(1 1) rotate(0) translate(4 378)">
<title>models_diagram</title>
<polygon fill="white" stroke="white" points="-4,5 -4,-378 983,-378 983,5 -4,5"/>
<!-- _diagram_info -->
<g id="node1" class="node"><title>_diagram_info</title>
<text text-anchor="start" x="7.31226" y="-357" font-family="Times,serif" font-size="13.00">Models diagram</text>
<text text-anchor="start" x="7.31226" y="-341.4" font-family="Times,serif" font-size="13.00">Date: May 30 2013 &#45; 09:08</text>
<text text-anchor="start" x="7.31226" y="-325.8" font-family="Times,serif" font-size="13.00">Migration version: 20130528145259</text>
<text text-anchor="start" x="7.31226" y="-310.2" font-family="Times,serif" font-size="13.00">Generated by RailRoady 1.1.0</text>
<text text-anchor="start" x="7.31226" y="-294.6" font-family="Times,serif" font-size="13.00">http://railroady.prestonlee.com</text>
</g>
<!-- Ability -->
<g id="node2" class="node"><title>Ability</title>
<polygon fill="none" stroke="black" points="280.255,-349 225.745,-349 225.745,-313 280.255,-313 280.255,-349"/>
<text text-anchor="middle" x="253" y="-325.4" font-family="Times,serif" font-size="14.00">Ability</text>
</g>
<!-- Activity -->
<g id="node3" class="node"><title>Activity</title>
<ellipse fill="none" stroke="black" cx="342" cy="-331" rx="42.5278" ry="18"/>
<text text-anchor="middle" x="342" y="-325.4" font-family="Times,serif" font-size="14.00">Activity</text>
</g>
<!-- Appointment -->
<g id="node4" class="node"><title>Appointment</title>
<ellipse fill="none" stroke="black" cx="509" cy="-234" rx="61.4993" ry="18"/>
<text text-anchor="middle" x="509" y="-228.4" font-family="Times,serif" font-size="14.00">Appointment</text>
</g>
<!-- Communication -->
<g id="node5" class="node"><title>Communication</title>
<ellipse fill="none" stroke="black" cx="762" cy="-90" rx="72.8978" ry="18"/>
<text text-anchor="middle" x="762" y="-84.4" font-family="Times,serif" font-size="14.00">Communication</text>
</g>
<!-- CommunicationRecord -->
<g id="node6" class="node"><title>CommunicationRecord</title>
<ellipse fill="none" stroke="black" cx="650" cy="-18" rx="101.226" ry="18"/>
<text text-anchor="middle" x="650" y="-12.4" font-family="Times,serif" font-size="14.00">CommunicationRecord</text>
</g>
<!-- Communication&#45;&gt;CommunicationRecord -->
<g id="edge1" class="edge"><title>Communication&#45;&gt;CommunicationRecord</title>
<path fill="none" stroke="black" d="M736.585,-73.1159C718.643,-61.902 694.658,-46.9115 676.483,-35.5516"/>
</g>
<!-- PlannedCommunication -->
<g id="node15" class="node"><title>PlannedCommunication</title>
<ellipse fill="none" stroke="black" cx="874" cy="-18" rx="104.064" ry="18"/>
<text text-anchor="middle" x="874" y="-12.4" font-family="Times,serif" font-size="14.00">PlannedCommunication</text>
</g>
<!-- Communication&#45;&gt;PlannedCommunication -->
<g id="edge16" class="edge"><title>Communication&#45;&gt;PlannedCommunication</title>
<path fill="none" stroke="black" d="M787.415,-73.1159C805.357,-61.902 829.342,-46.9115 847.517,-35.5516"/>
</g>
<!-- Contact -->
<g id="node7" class="node"><title>Contact</title>
<ellipse fill="none" stroke="black" cx="762" cy="-234" rx="41.1096" ry="18"/>
<text text-anchor="middle" x="762" y="-228.4" font-family="Times,serif" font-size="14.00">Contact</text>
</g>
<!-- Job -->
<g id="node10" class="node"><title>Job</title>
<ellipse fill="none" stroke="black" cx="539" cy="-162" rx="27" ry="18"/>
<text text-anchor="middle" x="539" y="-156.4" font-family="Times,serif" font-size="14.00">Job</text>
</g>
<!-- Contact&#45;&gt;Job -->
<g id="edge2" class="edge"><title>Contact&#45;&gt;Job</title>
<path fill="none" stroke="#bcf6b7" d="M723.159,-219.665C719.393,-218.411 715.626,-217.172 712,-216 663.846,-200.442 607.789,-183.476 572.845,-173.036"/>
<ellipse fill="none" stroke="#bcf6b7" cx="727.05" cy="-220.971" rx="4.00001" ry="4.00001"/>
<polygon fill="#bcf6b7" stroke="#bcf6b7" points="572.724,-173 564.427,-165.831 567.933,-171.572 563.141,-170.143 563.141,-170.143 563.141,-170.143 567.933,-171.572 561.855,-174.455 572.724,-173 572.724,-173"/>
</g>
<!-- Contact&#45;&gt;Communication -->
<g id="edge3" class="edge"><title>Contact&#45;&gt;Communication</title>
<path fill="none" stroke="#8507c3" d="M762,-205.679C762,-180.599 762,-143.627 762,-118.493"/>
<polygon fill="#8507c3" stroke="#8507c3" points="762,-205.871 757.5,-215.871 762,-210.871 762,-215.871 762,-215.871 762,-215.871 762,-210.871 766.5,-215.872 762,-205.871 762,-205.871"/>
<polygon fill="#8507c3" stroke="#8507c3" points="762,-118.189 766.5,-108.189 762,-113.189 762,-108.189 762,-108.189 762,-108.189 762,-113.189 757.5,-108.189 762,-118.189 762,-118.189"/>
</g>
<!-- Crew -->
<g id="node8" class="node"><title>Crew</title>
<ellipse fill="none" stroke="black" cx="359" cy="-234" rx="31.4312" ry="18"/>
<text text-anchor="middle" x="359" y="-228.4" font-family="Times,serif" font-size="14.00">Crew</text>
</g>
<!-- User -->
<g id="node17" class="node"><title>User</title>
<ellipse fill="none" stroke="black" cx="359" cy="-90" rx="28.9087" ry="18"/>
<text text-anchor="middle" x="359" y="-84.4" font-family="Times,serif" font-size="14.00">User</text>
</g>
<!-- Crew&#45;&gt;User -->
<g id="edge4" class="edge"><title>Crew&#45;&gt;User</title>
<path fill="none" stroke="#6a812f" d="M359,-205.679C359,-180.599 359,-143.627 359,-118.493"/>
<polygon fill="#6a812f" stroke="#6a812f" points="359,-205.871 354.5,-215.871 359,-210.871 359,-215.871 359,-215.871 359,-215.871 359,-210.871 363.5,-215.872 359,-205.871 359,-205.871"/>
<polygon fill="#6a812f" stroke="#6a812f" points="359,-118.189 363.5,-108.189 359,-113.189 359,-108.189 359,-108.189 359,-108.189 359,-113.189 354.5,-108.189 359,-118.189 359,-118.189"/>
</g>
<!-- Crew&#45;&gt;Job -->
<g id="edge5" class="edge"><title>Crew&#45;&gt;Job</title>
<path fill="none" stroke="#e61125" d="M392.221,-220.081C424.918,-207.365 474.516,-188.077 506.841,-175.506"/>
<ellipse fill="none" stroke="#e61125" cx="388.136" cy="-221.669" rx="4.00001" ry="4.00001"/>
<polygon fill="#e61125" stroke="#e61125" points="506.96,-175.46 517.912,-176.029 511.621,-173.648 516.281,-171.835 516.281,-171.835 516.281,-171.835 511.621,-173.648 514.65,-167.641 506.96,-175.46 506.96,-175.46"/>
</g>
<!-- EmailTemplate -->
<g id="node9" class="node"><title>EmailTemplate</title>
<ellipse fill="none" stroke="black" cx="613" cy="-331" rx="69.3332" ry="18"/>
<text text-anchor="middle" x="613" y="-325.4" font-family="Times,serif" font-size="14.00">EmailTemplate</text>
</g>
<!-- Job&#45;&gt;Communication -->
<g id="edge6" class="edge"><title>Job&#45;&gt;Communication</title>
<path fill="none" stroke="#3deb17" d="M570.696,-151.051C606.598,-139.781 665.692,-121.231 708.715,-107.726"/>
<ellipse fill="none" stroke="#3deb17" cx="566.681" cy="-152.311" rx="4.00001" ry="4.00001"/>
<polygon fill="#3deb17" stroke="#3deb17" points="708.916,-107.663 719.805,-108.962 713.687,-106.166 718.457,-104.668 718.457,-104.668 718.457,-104.668 713.687,-106.166 717.11,-100.375 708.916,-107.663 708.916,-107.663"/>
</g>
<!-- JobUser -->
<g id="node11" class="node"><title>JobUser</title>
<ellipse fill="none" stroke="black" cx="539" cy="-90" rx="42.5278" ry="18"/>
<text text-anchor="middle" x="539" y="-84.4" font-family="Times,serif" font-size="14.00">JobUser</text>
</g>
<!-- Job&#45;&gt;JobUser -->
<g id="edge7" class="edge"><title>Job&#45;&gt;JobUser</title>
<path fill="none" stroke="#6971f7" d="M539,-135.64C539,-130.063 539,-124.132 539,-118.476"/>
<ellipse fill="none" stroke="#6971f7" cx="539" cy="-139.697" rx="4" ry="4"/>
<polygon fill="#6971f7" stroke="#6971f7" points="539,-118.104 543.5,-108.104 539,-113.104 539,-108.104 539,-108.104 539,-108.104 539,-113.104 534.5,-108.104 539,-118.104 539,-118.104"/>
</g>
<!-- Job&#45;&gt;User -->
<g id="edge8" class="edge"><title>Job&#45;&gt;User</title>
<path fill="none" stroke="#0f38c4" d="M506.771,-148.467C474.574,-135.946 425.291,-116.78 392.614,-104.072"/>
<polygon fill="#0f38c4" stroke="#0f38c4" points="506.883,-148.51 514.572,-156.328 511.543,-150.322 516.203,-152.134 516.203,-152.134 516.203,-152.134 511.543,-150.322 517.834,-147.94 506.883,-148.51 506.883,-148.51"/>
<polygon fill="#0f38c4" stroke="#0f38c4" points="392.364,-103.975 384.675,-96.1563 387.704,-102.163 383.044,-100.35 383.044,-100.35 383.044,-100.35 387.704,-102.163 381.413,-104.544 392.364,-103.975 392.364,-103.975"/>
</g>
<!-- LeadSource -->
<g id="node12" class="node"><title>LeadSource</title>
<ellipse fill="none" stroke="black" cx="646" cy="-234" rx="57.2285" ry="18"/>
<text text-anchor="middle" x="646" y="-228.4" font-family="Times,serif" font-size="14.00">LeadSource</text>
</g>
<!-- LeadSource&#45;&gt;Job -->
<g id="edge9" class="edge"><title>LeadSource&#45;&gt;Job</title>
<path fill="none" stroke="#cc8c4b" d="M615.123,-212.8C599.751,-202.743 581.323,-190.688 566.45,-180.958"/>
<ellipse fill="none" stroke="#cc8c4b" cx="618.906" cy="-215.275" rx="4.00002" ry="4.00002"/>
<polygon fill="#cc8c4b" stroke="#cc8c4b" points="566.075,-180.713 560.17,-171.472 561.891,-177.975 557.707,-175.238 557.707,-175.238 557.707,-175.238 561.891,-177.975 555.243,-179.004 566.075,-180.713 566.075,-180.713"/>
</g>
<!-- LeadUpload -->
<g id="node13" class="node"><title>LeadUpload</title>
<ellipse fill="none" stroke="black" cx="760" cy="-331" rx="58.1497" ry="18"/>
<text text-anchor="middle" x="760" y="-325.4" font-family="Times,serif" font-size="14.00">LeadUpload</text>
</g>
<!-- Organization -->
<g id="node14" class="node"><title>Organization</title>
<ellipse fill="none" stroke="black" cx="464" cy="-331" rx="60.9184" ry="18"/>
<text text-anchor="middle" x="464" y="-325.4" font-family="Times,serif" font-size="14.00">Organization</text>
</g>
<!-- Organization&#45;&gt;User -->
<g id="edge10" class="edge"><title>Organization&#45;&gt;User</title>
<path fill="none" stroke="#1b923b" d="M432.109,-310.339C419.995,-303.082 405.987,-294.941 393,-288 360.391,-270.571 337.692,-283.295 318,-252 290.901,-208.933 320.621,-148.766 341.719,-115.519"/>
<ellipse fill="none" stroke="#1b923b" cx="435.575" cy="-312.429" rx="4.00002" ry="4.00002"/>
<polygon fill="#1b923b" stroke="#1b923b" points="341.896,-115.25 351.147,-109.363 344.641,-111.071 347.386,-106.892 347.386,-106.892 347.386,-106.892 344.641,-111.071 343.626,-104.421 341.896,-115.25 341.896,-115.25"/>
</g>
<!-- Organization&#45;&gt;Crew -->
<g id="edge11" class="edge"><title>Organization&#45;&gt;Crew</title>
<path fill="none" stroke="#8ae532" d="M439.583,-307.909C422.608,-292.55 400.082,-272.169 383.162,-256.861"/>
<ellipse fill="none" stroke="#8ae532" cx="442.744" cy="-310.769" rx="4.00002" ry="4.00002"/>
<polygon fill="#8ae532" stroke="#8ae532" points="382.771,-256.507 378.375,-246.461 379.064,-253.153 375.356,-249.798 375.356,-249.798 375.356,-249.798 379.064,-253.153 372.337,-253.135 382.771,-256.507 382.771,-256.507"/>
</g>
<!-- Organization&#45;&gt;Job -->
<g id="edge12" class="edge"><title>Organization&#45;&gt;Job</title>
<path fill="none" stroke="#404816" d="M448.784,-305.84C435.626,-281.568 421.153,-243.866 438,-216 452.19,-192.529 480.59,-178.941 503.67,-171.413"/>
<ellipse fill="none" stroke="#404816" cx="450.819" cy="-309.435" rx="4.00002" ry="4.00002"/>
<polygon fill="#404816" stroke="#404816" points="503.927,-171.335 514.799,-172.766 508.715,-169.896 513.503,-168.456 513.503,-168.456 513.503,-168.456 508.715,-169.896 512.207,-164.147 503.927,-171.335 503.927,-171.335"/>
</g>
<!-- Organization&#45;&gt;Appointment -->
<g id="edge13" class="edge"><title>Organization&#45;&gt;Appointment</title>
<path fill="none" stroke="#66069a" d="M475.5,-305.723C481.946,-292.114 489.99,-275.131 496.58,-261.219"/>
<ellipse fill="none" stroke="#66069a" cx="473.757" cy="-309.401" rx="4.00002" ry="4.00002"/>
<polygon fill="#66069a" stroke="#66069a" points="496.592,-261.195 504.94,-254.084 498.732,-256.676 500.873,-252.157 500.873,-252.157 500.873,-252.157 498.732,-256.676 496.806,-250.231 496.592,-261.195 496.592,-261.195"/>
</g>
<!-- Organization&#45;&gt;Contact -->
<g id="edge14" class="edge"><title>Organization&#45;&gt;Contact</title>
<path fill="none" stroke="#fd2523" d="M492.883,-309.632C505.086,-301.849 519.751,-293.526 534,-288 609.251,-258.814 634.076,-273.034 712,-252 715.187,-251.14 718.466,-250.185 721.748,-249.18"/>
<ellipse fill="none" stroke="#fd2523" cx="489.353" cy="-311.939" rx="4.00002" ry="4.00002"/>
<polygon fill="#fd2523" stroke="#fd2523" points="721.993,-249.102 732.889,-250.342 726.755,-247.579 731.518,-246.056 731.518,-246.056 731.518,-246.056 726.755,-247.579 730.147,-241.77 721.993,-249.102 721.993,-249.102"/>
</g>
<!-- Organization&#45;&gt;Communication -->
<g id="edge15" class="edge"><title>Organization&#45;&gt;Communication</title>
<path fill="none" stroke="#d7de80" d="M492.131,-309.488C504.414,-301.518 519.341,-293.097 534,-288 592.839,-267.543 770.877,-298.791 812,-252 846.377,-212.885 808.818,-150.372 782.709,-115.878"/>
<ellipse fill="none" stroke="#d7de80" cx="488.553" cy="-311.877" rx="4.00002" ry="4.00002"/>
<polygon fill="#d7de80" stroke="#d7de80" points="782.517,-115.631 779.918,-104.977 779.443,-111.687 776.369,-107.743 776.369,-107.743 776.369,-107.743 779.443,-111.687 772.82,-110.51 782.517,-115.631 782.517,-115.631"/>
</g>
<!-- Quote -->
<g id="node16" class="node"><title>Quote</title>
<ellipse fill="none" stroke="black" cx="871" cy="-331" rx="34.4542" ry="18"/>
<text text-anchor="middle" x="871" y="-325.4" font-family="Times,serif" font-size="14.00">Quote</text>
</g>
</g>
</svg>
