<?xml version="1.0" encoding="UTF-8" standalone="no"?>
<!DOCTYPE svg PUBLIC "-//W3C//DTD SVG 1.1//EN"
 "http://www.w3.org/Graphics/SVG/1.1/DTD/svg11.dtd">
<!-- Generated by graphviz version 2.30.1 (20130530.1301)
 -->
<!-- Title: models_diagram Pages: 1 -->
<svg width="1197pt" height="2206pt"
 viewBox="0.00 0.00 1197.16 2206.00" xmlns="http://www.w3.org/2000/svg" xmlns:xlink="http://www.w3.org/1999/xlink">
<g id="graph0" class="graph" transform="scale(1 1) rotate(0) translate(4 2202)">
<title>models_diagram</title>
<polygon fill="white" stroke="white" points="-4,5 -4,-2202 1194.16,-2202 1194.16,5 -4,5"/>
<!-- _diagram_info -->
<g id="node1" class="node"><title>_diagram_info</title>
<text text-anchor="start" x="7.31226" y="-1963" font-family="Times,serif" font-size="13.00">Models diagram</text>
<text text-anchor="start" x="7.31226" y="-1947.4" font-family="Times,serif" font-size="13.00">Date: May 30 2013 &#45; 09:08</text>
<text text-anchor="start" x="7.31226" y="-1931.8" font-family="Times,serif" font-size="13.00">Migration version: 20130528145259</text>
<text text-anchor="start" x="7.31226" y="-1916.2" font-family="Times,serif" font-size="13.00">Generated by RailRoady 1.1.0</text>
<text text-anchor="start" x="7.31226" y="-1900.6" font-family="Times,serif" font-size="13.00">http://railroady.prestonlee.com</text>
</g>
<!-- Ability -->
<g id="node2" class="node"><title>Ability</title>
<polygon fill="none" stroke="black" points="225.166,-1912.2 225.166,-1961.8 280.834,-1961.8 280.834,-1912.2 225.166,-1912.2"/>
<text text-anchor="middle" x="253" y="-1943.8" font-family="Times,serif" font-size="14.00">Ability</text>
<polyline fill="none" stroke="black" points="225.166,-1937 280.834,-1937 "/>
<text text-anchor="middle" x="253" y="-1919" font-family="Times,serif" font-size="14.00"> </text>
</g>
<!-- Activity -->
<g id="node3" class="node"><title>Activity</title>
<path fill="none" stroke="black" d="M310.495,-1878.6C310.495,-1878.6 419.505,-1878.6 419.505,-1878.6 425.505,-1878.6 431.505,-1884.6 431.505,-1890.6 431.505,-1890.6 431.505,-1983.4 431.505,-1983.4 431.505,-1989.4 425.505,-1995.4 419.505,-1995.4 419.505,-1995.4 310.495,-1995.4 310.495,-1995.4 304.495,-1995.4 298.495,-1989.4 298.495,-1983.4 298.495,-1983.4 298.495,-1890.6 298.495,-1890.6 298.495,-1884.6 304.495,-1878.6 310.495,-1878.6"/>
<text text-anchor="middle" x="365" y="-1977.4" font-family="Times,serif" font-size="14.00">Activity</text>
<polyline fill="none" stroke="black" points="298.495,-1970.6 431.505,-1970.6 "/>
<text text-anchor="start" x="306.495" y="-1952.6" font-family="Times,serif" font-size="14.00">id :integer</text>
<text text-anchor="start" x="306.495" y="-1935.8" font-family="Times,serif" font-size="14.00">event_type :string</text>
<text text-anchor="start" x="306.495" y="-1919" font-family="Times,serif" font-size="14.00">data :text</text>
<text text-anchor="start" x="306.495" y="-1902.2" font-family="Times,serif" font-size="14.00">created_at :datetime</text>
<text text-anchor="start" x="306.495" y="-1885.4" font-family="Times,serif" font-size="14.00">updated_at :datetime</text>
</g>
<!-- Appointment -->
<g id="node4" class="node"><title>Appointment</title>
<path fill="none" stroke="black" d="M523.729,-1404.6C523.729,-1404.6 718.271,-1404.6 718.271,-1404.6 724.271,-1404.6 730.271,-1410.6 730.271,-1416.6 730.271,-1416.6 730.271,-1593.4 730.271,-1593.4 730.271,-1599.4 724.271,-1605.4 718.271,-1605.4 718.271,-1605.4 523.729,-1605.4 523.729,-1605.4 517.729,-1605.4 511.729,-1599.4 511.729,-1593.4 511.729,-1593.4 511.729,-1416.6 511.729,-1416.6 511.729,-1410.6 517.729,-1404.6 523.729,-1404.6"/>
<text text-anchor="middle" x="621" y="-1587.4" font-family="Times,serif" font-size="14.00">Appointment</text>
<polyline fill="none" stroke="black" points="511.729,-1580.6 730.271,-1580.6 "/>
<text text-anchor="start" x="519.729" y="-1562.6" font-family="Times,serif" font-size="14.00">id :integer</text>
<text text-anchor="start" x="519.729" y="-1545.8" font-family="Times,serif" font-size="14.00">user_id :integer</text>
<text text-anchor="start" x="519.729" y="-1529" font-family="Times,serif" font-size="14.00">job_id :integer</text>
<text text-anchor="start" x="519.729" y="-1512.2" font-family="Times,serif" font-size="14.00">start_datetime :datetime</text>
<text text-anchor="start" x="519.729" y="-1495.4" font-family="Times,serif" font-size="14.00">end_datetime :datetime</text>
<text text-anchor="start" x="519.729" y="-1478.6" font-family="Times,serif" font-size="14.00">notes :text</text>
<text text-anchor="start" x="519.729" y="-1461.8" font-family="Times,serif" font-size="14.00">email_before_appointment :boolean</text>
<text text-anchor="start" x="519.729" y="-1445" font-family="Times,serif" font-size="14.00">created_at :datetime</text>
<text text-anchor="start" x="519.729" y="-1428.2" font-family="Times,serif" font-size="14.00">updated_at :datetime</text>
<text text-anchor="start" x="519.729" y="-1411.4" font-family="Times,serif" font-size="14.00">organization_id :integer</text>
</g>
<!-- Communication -->
<g id="node5" class="node"><title>Communication</title>
<path fill="none" stroke="black" d="M926.781,-508C926.781,-508 1055.22,-508 1055.22,-508 1061.22,-508 1067.22,-514 1067.22,-520 1067.22,-520 1067.22,-764 1067.22,-764 1067.22,-770 1061.22,-776 1055.22,-776 1055.22,-776 926.781,-776 926.781,-776 920.781,-776 914.781,-770 914.781,-764 914.781,-764 914.781,-520 914.781,-520 914.781,-514 920.781,-508 926.781,-508"/>
<text text-anchor="middle" x="991" y="-758" font-family="Times,serif" font-size="14.00">Communication</text>
<polyline fill="none" stroke="black" points="914.781,-751.2 1067.22,-751.2 "/>
<text text-anchor="start" x="922.781" y="-733.2" font-family="Times,serif" font-size="14.00">id :integer</text>
<text text-anchor="start" x="922.781" y="-716.4" font-family="Times,serif" font-size="14.00">job_id :integer</text>
<text text-anchor="start" x="922.781" y="-699.6" font-family="Times,serif" font-size="14.00">user_id :integer</text>
<text text-anchor="start" x="922.781" y="-682.8" font-family="Times,serif" font-size="14.00">details :text</text>
<text text-anchor="start" x="922.781" y="-666" font-family="Times,serif" font-size="14.00">outcome :string</text>
<text text-anchor="start" x="922.781" y="-649.2" font-family="Times,serif" font-size="14.00">action :string</text>
<text text-anchor="start" x="922.781" y="-632.4" font-family="Times,serif" font-size="14.00">datetime :datetime</text>
<text text-anchor="start" x="922.781" y="-615.6" font-family="Times,serif" font-size="14.00">datetime_exact :boolean</text>
<text text-anchor="start" x="922.781" y="-598.8" font-family="Times,serif" font-size="14.00">created_at :datetime</text>
<text text-anchor="start" x="922.781" y="-582" font-family="Times,serif" font-size="14.00">updated_at :datetime</text>
<text text-anchor="start" x="922.781" y="-565.2" font-family="Times,serif" font-size="14.00">next_step :string</text>
<text text-anchor="start" x="922.781" y="-548.4" font-family="Times,serif" font-size="14.00">type :string</text>
<text text-anchor="start" x="922.781" y="-531.6" font-family="Times,serif" font-size="14.00">organization_id :integer</text>
<text text-anchor="start" x="922.781" y="-514.8" font-family="Times,serif" font-size="14.00">note :string</text>
</g>
<!-- CommunicationRecord -->
<g id="node6" class="node"><title>CommunicationRecord</title>
<path fill="none" stroke="black" d="M841.781,-1C841.781,-1 970.219,-1 970.219,-1 976.219,-1 982.219,-7 982.219,-13 982.219,-13 982.219,-257 982.219,-257 982.219,-263 976.219,-269 970.219,-269 970.219,-269 841.781,-269 841.781,-269 835.781,-269 829.781,-263 829.781,-257 829.781,-257 829.781,-13 829.781,-13 829.781,-7 835.781,-1 841.781,-1"/>
<text text-anchor="middle" x="906" y="-251" font-family="Times,serif" font-size="14.00">CommunicationRecord</text>
<polyline fill="none" stroke="black" points="829.781,-244.2 982.219,-244.2 "/>
<text text-anchor="start" x="837.781" y="-226.2" font-family="Times,serif" font-size="14.00">id :integer</text>
<text text-anchor="start" x="837.781" y="-209.4" font-family="Times,serif" font-size="14.00">job_id :integer</text>
<text text-anchor="start" x="837.781" y="-192.6" font-family="Times,serif" font-size="14.00">user_id :integer</text>
<text text-anchor="start" x="837.781" y="-175.8" font-family="Times,serif" font-size="14.00">details :text</text>
<text text-anchor="start" x="837.781" y="-159" font-family="Times,serif" font-size="14.00">outcome :string</text>
<text text-anchor="start" x="837.781" y="-142.2" font-family="Times,serif" font-size="14.00">action :string</text>
<text text-anchor="start" x="837.781" y="-125.4" font-family="Times,serif" font-size="14.00">datetime :datetime</text>
<text text-anchor="start" x="837.781" y="-108.6" font-family="Times,serif" font-size="14.00">datetime_exact :boolean</text>
<text text-anchor="start" x="837.781" y="-91.8" font-family="Times,serif" font-size="14.00">created_at :datetime</text>
<text text-anchor="start" x="837.781" y="-75" font-family="Times,serif" font-size="14.00">updated_at :datetime</text>
<text text-anchor="start" x="837.781" y="-58.2" font-family="Times,serif" font-size="14.00">next_step :string</text>
<text text-anchor="start" x="837.781" y="-41.4" font-family="Times,serif" font-size="14.00">type :string</text>
<text text-anchor="start" x="837.781" y="-24.6" font-family="Times,serif" font-size="14.00">organization_id :integer</text>
<text text-anchor="start" x="837.781" y="-7.8" font-family="Times,serif" font-size="14.00">note :string</text>
</g>
<!-- Communication&#45;&gt;CommunicationRecord -->
<g id="edge1" class="edge"><title>Communication&#45;&gt;CommunicationRecord</title>
<path fill="none" stroke="black" d="M968.612,-507.987C956.217,-434.346 940.855,-343.082 928.45,-269.382"/>
</g>
<!-- PlannedCommunication -->
<g id="node15" class="node"><title>PlannedCommunication</title>
<path fill="none" stroke="black" d="M1011.78,-1C1011.78,-1 1140.22,-1 1140.22,-1 1146.22,-1 1152.22,-7 1152.22,-13 1152.22,-13 1152.22,-257 1152.22,-257 1152.22,-263 1146.22,-269 1140.22,-269 1140.22,-269 1011.78,-269 1011.78,-269 1005.78,-269 999.781,-263 999.781,-257 999.781,-257 999.781,-13 999.781,-13 999.781,-7 1005.78,-1 1011.78,-1"/>
<text text-anchor="middle" x="1076" y="-251" font-family="Times,serif" font-size="14.00">PlannedCommunication</text>
<polyline fill="none" stroke="black" points="999.781,-244.2 1152.22,-244.2 "/>
<text text-anchor="start" x="1007.78" y="-226.2" font-family="Times,serif" font-size="14.00">id :integer</text>
<text text-anchor="start" x="1007.78" y="-209.4" font-family="Times,serif" font-size="14.00">job_id :integer</text>
<text text-anchor="start" x="1007.78" y="-192.6" font-family="Times,serif" font-size="14.00">user_id :integer</text>
<text text-anchor="start" x="1007.78" y="-175.8" font-family="Times,serif" font-size="14.00">details :text</text>
<text text-anchor="start" x="1007.78" y="-159" font-family="Times,serif" font-size="14.00">outcome :string</text>
<text text-anchor="start" x="1007.78" y="-142.2" font-family="Times,serif" font-size="14.00">action :string</text>
<text text-anchor="start" x="1007.78" y="-125.4" font-family="Times,serif" font-size="14.00">datetime :datetime</text>
<text text-anchor="start" x="1007.78" y="-108.6" font-family="Times,serif" font-size="14.00">datetime_exact :boolean</text>
<text text-anchor="start" x="1007.78" y="-91.8" font-family="Times,serif" font-size="14.00">created_at :datetime</text>
<text text-anchor="start" x="1007.78" y="-75" font-family="Times,serif" font-size="14.00">updated_at :datetime</text>
<text text-anchor="start" x="1007.78" y="-58.2" font-family="Times,serif" font-size="14.00">next_step :string</text>
<text text-anchor="start" x="1007.78" y="-41.4" font-family="Times,serif" font-size="14.00">type :string</text>
<text text-anchor="start" x="1007.78" y="-24.6" font-family="Times,serif" font-size="14.00">organization_id :integer</text>
<text text-anchor="start" x="1007.78" y="-7.8" font-family="Times,serif" font-size="14.00">note :string</text>
</g>
<!-- Communication&#45;&gt;PlannedCommunication -->
<g id="edge16" class="edge"><title>Communication&#45;&gt;PlannedCommunication</title>
<path fill="none" stroke="black" d="M1013.39,-507.987C1025.78,-434.346 1041.14,-343.082 1053.55,-269.382"/>
</g>
<!-- Contact -->
<g id="node7" class="node"><title>Contact</title>
<path fill="none" stroke="black" d="M928.062,-1371C928.062,-1371 1053.94,-1371 1053.94,-1371 1059.94,-1371 1065.94,-1377 1065.94,-1383 1065.94,-1383 1065.94,-1627 1065.94,-1627 1065.94,-1633 1059.94,-1639 1053.94,-1639 1053.94,-1639 928.062,-1639 928.062,-1639 922.062,-1639 916.062,-1633 916.062,-1627 916.062,-1627 916.062,-1383 916.062,-1383 916.062,-1377 922.062,-1371 928.062,-1371"/>
<text text-anchor="middle" x="991" y="-1621" font-family="Times,serif" font-size="14.00">Contact</text>
<polyline fill="none" stroke="black" points="916.062,-1614.2 1065.94,-1614.2 "/>
<text text-anchor="start" x="924.062" y="-1596.2" font-family="Times,serif" font-size="14.00">id :integer</text>
<text text-anchor="start" x="924.062" y="-1579.4" font-family="Times,serif" font-size="14.00">first_name :string</text>
<text text-anchor="start" x="924.062" y="-1562.6" font-family="Times,serif" font-size="14.00">last_name :string</text>
<text text-anchor="start" x="924.062" y="-1545.8" font-family="Times,serif" font-size="14.00">phone :string</text>
<text text-anchor="start" x="924.062" y="-1529" font-family="Times,serif" font-size="14.00">email :string</text>
<text text-anchor="start" x="924.062" y="-1512.2" font-family="Times,serif" font-size="14.00">address :string</text>
<text text-anchor="start" x="924.062" y="-1495.4" font-family="Times,serif" font-size="14.00">address2 :string</text>
<text text-anchor="start" x="924.062" y="-1478.6" font-family="Times,serif" font-size="14.00">city :string</text>
<text text-anchor="start" x="924.062" y="-1461.8" font-family="Times,serif" font-size="14.00">state :string</text>
<text text-anchor="start" x="924.062" y="-1445" font-family="Times,serif" font-size="14.00">zip :string</text>
<text text-anchor="start" x="924.062" y="-1428.2" font-family="Times,serif" font-size="14.00">country :string</text>
<text text-anchor="start" x="924.062" y="-1411.4" font-family="Times,serif" font-size="14.00">created_at :datetime</text>
<text text-anchor="start" x="924.062" y="-1394.6" font-family="Times,serif" font-size="14.00">updated_at :datetime</text>
<text text-anchor="start" x="924.062" y="-1377.8" font-family="Times,serif" font-size="14.00">organization_id :integer</text>
</g>
<!-- Job -->
<g id="node10" class="node"><title>Job</title>
<path fill="none" stroke="black" d="M639.439,-1014.8C639.439,-1014.8 772.561,-1014.8 772.561,-1014.8 778.561,-1014.8 784.561,-1020.8 784.561,-1026.8 784.561,-1026.8 784.561,-1321.2 784.561,-1321.2 784.561,-1327.2 778.561,-1333.2 772.561,-1333.2 772.561,-1333.2 639.439,-1333.2 639.439,-1333.2 633.439,-1333.2 627.439,-1327.2 627.439,-1321.2 627.439,-1321.2 627.439,-1026.8 627.439,-1026.8 627.439,-1020.8 633.439,-1014.8 639.439,-1014.8"/>
<text text-anchor="middle" x="706" y="-1315.2" font-family="Times,serif" font-size="14.00">Job</text>
<polyline fill="none" stroke="black" points="627.439,-1308.4 784.561,-1308.4 "/>
<text text-anchor="start" x="635.439" y="-1290.4" font-family="Times,serif" font-size="14.00">id :integer</text>
<text text-anchor="start" x="635.439" y="-1273.6" font-family="Times,serif" font-size="14.00">title :string</text>
<text text-anchor="start" x="635.439" y="-1256.8" font-family="Times,serif" font-size="14.00">lead_source_id :integer</text>
<text text-anchor="start" x="635.439" y="-1240" font-family="Times,serif" font-size="14.00">contact_id :integer</text>
<text text-anchor="start" x="635.439" y="-1223.2" font-family="Times,serif" font-size="14.00">details :text</text>
<text text-anchor="start" x="635.439" y="-1206.4" font-family="Times,serif" font-size="14.00">probability :integer</text>
<text text-anchor="start" x="635.439" y="-1189.6" font-family="Times,serif" font-size="14.00">state :string</text>
<text text-anchor="start" x="635.439" y="-1172.8" font-family="Times,serif" font-size="14.00">created_at :datetime</text>
<text text-anchor="start" x="635.439" y="-1156" font-family="Times,serif" font-size="14.00">updated_at :datetime</text>
<text text-anchor="start" x="635.439" y="-1139.2" font-family="Times,serif" font-size="14.00">start_date :datetime</text>
<text text-anchor="start" x="635.439" y="-1122.4" font-family="Times,serif" font-size="14.00">end_date :datetime</text>
<text text-anchor="start" x="635.439" y="-1105.6" font-family="Times,serif" font-size="14.00">amount :float</text>
<text text-anchor="start" x="635.439" y="-1088.8" font-family="Times,serif" font-size="14.00">budgeted_hours :float</text>
<text text-anchor="start" x="635.439" y="-1072" font-family="Times,serif" font-size="14.00">email_customer :boolean</text>
<text text-anchor="start" x="635.439" y="-1055.2" font-family="Times,serif" font-size="14.00">crew_id :integer</text>
<text text-anchor="start" x="635.439" y="-1038.4" font-family="Times,serif" font-size="14.00">active :boolean</text>
<text text-anchor="start" x="635.439" y="-1021.6" font-family="Times,serif" font-size="14.00">organization_id :integer</text>
</g>
<!-- Contact&#45;&gt;Job -->
<g id="edge2" class="edge"><title>Contact&#45;&gt;Job</title>
<path fill="none" stroke="#70fa2c" d="M910.929,-1376.19C909.293,-1374.1 907.649,-1372.03 906,-1370 871.768,-1327.81 829.194,-1285.2 792.137,-1250.62"/>
<ellipse fill="none" stroke="#70fa2c" cx="913.379" cy="-1379.38" rx="4.00002" ry="4.00002"/>
<polygon fill="#70fa2c" stroke="#70fa2c" points="792.132,-1250.62 787.864,-1240.52 788.467,-1247.22 784.803,-1243.82 784.803,-1243.82 784.803,-1243.82 788.467,-1247.22 781.741,-1247.11 792.132,-1250.62 792.132,-1250.62"/>
</g>
<!-- Contact&#45;&gt;Communication -->
<g id="edge3" class="edge"><title>Contact&#45;&gt;Communication</title>
<path fill="none" stroke="#8d3574" d="M991,-1360.8C991,-1201.64 991,-946.073 991,-786.704"/>
<polygon fill="#8d3574" stroke="#8d3574" points="991,-1360.88 986.5,-1370.88 991,-1365.88 991,-1370.88 991,-1370.88 991,-1370.88 991,-1365.88 995.5,-1370.88 991,-1360.88 991,-1360.88"/>
<polygon fill="#8d3574" stroke="#8d3574" points="991,-786.348 995.5,-776.348 991,-781.348 991,-776.348 991,-776.348 991,-776.348 991,-781.348 986.5,-776.348 991,-786.348 991,-786.348"/>
</g>
<!-- Crew -->
<g id="node8" class="node"><title>Crew</title>
<path fill="none" stroke="black" d="M318.062,-1438.2C318.062,-1438.2 443.938,-1438.2 443.938,-1438.2 449.938,-1438.2 455.938,-1444.2 455.938,-1450.2 455.938,-1450.2 455.938,-1559.8 455.938,-1559.8 455.938,-1565.8 449.938,-1571.8 443.938,-1571.8 443.938,-1571.8 318.062,-1571.8 318.062,-1571.8 312.062,-1571.8 306.062,-1565.8 306.062,-1559.8 306.062,-1559.8 306.062,-1450.2 306.062,-1450.2 306.062,-1444.2 312.062,-1438.2 318.062,-1438.2"/>
<text text-anchor="middle" x="381" y="-1553.8" font-family="Times,serif" font-size="14.00">Crew</text>
<polyline fill="none" stroke="black" points="306.062,-1547 455.938,-1547 "/>
<text text-anchor="start" x="314.062" y="-1529" font-family="Times,serif" font-size="14.00">id :integer</text>
<text text-anchor="start" x="314.062" y="-1512.2" font-family="Times,serif" font-size="14.00">name :string</text>
<text text-anchor="start" x="314.062" y="-1495.4" font-family="Times,serif" font-size="14.00">created_at :datetime</text>
<text text-anchor="start" x="314.062" y="-1478.6" font-family="Times,serif" font-size="14.00">updated_at :datetime</text>
<text text-anchor="start" x="314.062" y="-1461.8" font-family="Times,serif" font-size="14.00">organization_id :integer</text>
<text text-anchor="start" x="314.062" y="-1445" font-family="Times,serif" font-size="14.00">color :string</text>
</g>
<!-- User -->
<g id="node17" class="node"><title>User</title>
<path fill="none" stroke="black" d="M270.501,-306.4C270.501,-306.4 491.499,-306.4 491.499,-306.4 497.499,-306.4 503.499,-312.4 503.499,-318.4 503.499,-318.4 503.499,-965.6 503.499,-965.6 503.499,-971.6 497.499,-977.6 491.499,-977.6 491.499,-977.6 270.501,-977.6 270.501,-977.6 264.501,-977.6 258.501,-971.6 258.501,-965.6 258.501,-965.6 258.501,-318.4 258.501,-318.4 258.501,-312.4 264.501,-306.4 270.501,-306.4"/>
<text text-anchor="middle" x="381" y="-959.6" font-family="Times,serif" font-size="14.00">User</text>
<polyline fill="none" stroke="black" points="258.501,-952.8 503.499,-952.8 "/>
<text text-anchor="start" x="266.501" y="-934.8" font-family="Times,serif" font-size="14.00">id :integer</text>
<text text-anchor="start" x="266.501" y="-918" font-family="Times,serif" font-size="14.00">email :string</text>
<text text-anchor="start" x="266.501" y="-901.2" font-family="Times,serif" font-size="14.00">encrypted_password :string</text>
<text text-anchor="start" x="266.501" y="-884.4" font-family="Times,serif" font-size="14.00">reset_password_token :string</text>
<text text-anchor="start" x="266.501" y="-867.6" font-family="Times,serif" font-size="14.00">reset_password_sent_at :datetime</text>
<text text-anchor="start" x="266.501" y="-850.8" font-family="Times,serif" font-size="14.00">remember_created_at :datetime</text>
<text text-anchor="start" x="266.501" y="-834" font-family="Times,serif" font-size="14.00">sign_in_count :integer</text>
<text text-anchor="start" x="266.501" y="-817.2" font-family="Times,serif" font-size="14.00">current_sign_in_at :datetime</text>
<text text-anchor="start" x="266.501" y="-800.4" font-family="Times,serif" font-size="14.00">last_sign_in_at :datetime</text>
<text text-anchor="start" x="266.501" y="-783.6" font-family="Times,serif" font-size="14.00">current_sign_in_ip :string</text>
<text text-anchor="start" x="266.501" y="-766.8" font-family="Times,serif" font-size="14.00">last_sign_in_ip :string</text>
<text text-anchor="start" x="266.501" y="-750" font-family="Times,serif" font-size="14.00">created_at :datetime</text>
<text text-anchor="start" x="266.501" y="-733.2" font-family="Times,serif" font-size="14.00">updated_at :datetime</text>
<text text-anchor="start" x="266.501" y="-716.4" font-family="Times,serif" font-size="14.00">organization_id :integer</text>
<text text-anchor="start" x="266.501" y="-699.6" font-family="Times,serif" font-size="14.00">last_name :string</text>
<text text-anchor="start" x="266.501" y="-682.8" font-family="Times,serif" font-size="14.00">first_name :string</text>
<text text-anchor="start" x="266.501" y="-666" font-family="Times,serif" font-size="14.00">phone :string</text>
<text text-anchor="start" x="266.501" y="-649.2" font-family="Times,serif" font-size="14.00">address :string</text>
<text text-anchor="start" x="266.501" y="-632.4" font-family="Times,serif" font-size="14.00">address2 :string</text>
<text text-anchor="start" x="266.501" y="-615.6" font-family="Times,serif" font-size="14.00">city :string</text>
<text text-anchor="start" x="266.501" y="-598.8" font-family="Times,serif" font-size="14.00">state :string</text>
<text text-anchor="start" x="266.501" y="-582" font-family="Times,serif" font-size="14.00">zip :string</text>
<text text-anchor="start" x="266.501" y="-565.2" font-family="Times,serif" font-size="14.00">active :boolean</text>
<text text-anchor="start" x="266.501" y="-548.4" font-family="Times,serif" font-size="14.00">can_view_leads :boolean</text>
<text text-anchor="start" x="266.501" y="-531.6" font-family="Times,serif" font-size="14.00">can_manage_leads :boolean</text>
<text text-anchor="start" x="266.501" y="-514.8" font-family="Times,serif" font-size="14.00">can_view_appointments :boolean</text>
<text text-anchor="start" x="266.501" y="-498" font-family="Times,serif" font-size="14.00">can_manage_appointments :boolean</text>
<text text-anchor="start" x="266.501" y="-481.2" font-family="Times,serif" font-size="14.00">can_view_all_jobs :boolean</text>
<text text-anchor="start" x="266.501" y="-464.4" font-family="Times,serif" font-size="14.00">can_view_own_jobs :boolean</text>
<text text-anchor="start" x="266.501" y="-447.6" font-family="Times,serif" font-size="14.00">can_manage_jobs :boolean</text>
<text text-anchor="start" x="266.501" y="-430.8" font-family="Times,serif" font-size="14.00">can_view_all_proposals :boolean</text>
<text text-anchor="start" x="266.501" y="-414" font-family="Times,serif" font-size="14.00">can_view_assigned_proposals :boolean</text>
<text text-anchor="start" x="266.501" y="-397.2" font-family="Times,serif" font-size="14.00">can_manage_proposals :boolean</text>
<text text-anchor="start" x="266.501" y="-380.4" font-family="Times,serif" font-size="14.00">can_be_assigned_appointments :boolean</text>
<text text-anchor="start" x="266.501" y="-363.6" font-family="Times,serif" font-size="14.00">can_be_assigned_jobs :boolean</text>
<text text-anchor="start" x="266.501" y="-346.8" font-family="Times,serif" font-size="14.00">role :string</text>
<text text-anchor="start" x="266.501" y="-330" font-family="Times,serif" font-size="14.00">country :string</text>
<text text-anchor="start" x="266.501" y="-313.2" font-family="Times,serif" font-size="14.00">pay_rate :float</text>
</g>
<!-- Crew&#45;&gt;User -->
<g id="edge4" class="edge"><title>Crew&#45;&gt;User</title>
<path fill="none" stroke="#77f704" d="M381,-1427.77C381,-1328.95 381,-1150.05 381,-987.993"/>
<polygon fill="#77f704" stroke="#77f704" points="381,-1427.87 376.5,-1437.87 381,-1432.87 381,-1437.87 381,-1437.87 381,-1437.87 381,-1432.87 385.5,-1437.87 381,-1427.87 381,-1427.87"/>
<polygon fill="#77f704" stroke="#77f704" points="381,-987.837 385.5,-977.837 381,-982.837 381,-977.837 381,-977.837 381,-977.837 381,-982.837 376.5,-977.837 381,-987.837 381,-987.837"/>
</g>
<!-- Crew&#45;&gt;Job -->
<g id="edge5" class="edge"><title>Crew&#45;&gt;Job</title>
<path fill="none" stroke="#e11fe8" d="M423.79,-1431.18C437.398,-1410.48 453.291,-1388.55 470,-1370 514.64,-1320.44 572.224,-1272.62 619.336,-1236.73"/>
<ellipse fill="none" stroke="#e11fe8" cx="421.444" cy="-1434.79" rx="4.00002" ry="4.00002"/>
<polygon fill="#e11fe8" stroke="#e11fe8" points="619.429,-1236.66 630.118,-1234.21 623.416,-1233.64 627.402,-1230.62 627.402,-1230.62 627.402,-1230.62 623.416,-1233.64 624.686,-1227.03 619.429,-1236.66 619.429,-1236.66"/>
</g>
<!-- EmailTemplate -->
<g id="node9" class="node"><title>EmailTemplate</title>
<path fill="none" stroke="black" d="M686.062,-1836.6C686.062,-1836.6 811.938,-1836.6 811.938,-1836.6 817.938,-1836.6 823.938,-1842.6 823.938,-1848.6 823.938,-1848.6 823.938,-2025.4 823.938,-2025.4 823.938,-2031.4 817.938,-2037.4 811.938,-2037.4 811.938,-2037.4 686.062,-2037.4 686.062,-2037.4 680.062,-2037.4 674.062,-2031.4 674.062,-2025.4 674.062,-2025.4 674.062,-1848.6 674.062,-1848.6 674.062,-1842.6 680.062,-1836.6 686.062,-1836.6"/>
<text text-anchor="middle" x="749" y="-2019.4" font-family="Times,serif" font-size="14.00">EmailTemplate</text>
<polyline fill="none" stroke="black" points="674.062,-2012.6 823.938,-2012.6 "/>
<text text-anchor="start" x="682.062" y="-1994.6" font-family="Times,serif" font-size="14.00">id :integer</text>
<text text-anchor="start" x="682.062" y="-1977.8" font-family="Times,serif" font-size="14.00">organization_id :integer</text>
<text text-anchor="start" x="682.062" y="-1961" font-family="Times,serif" font-size="14.00">name :string</text>
<text text-anchor="start" x="682.062" y="-1944.2" font-family="Times,serif" font-size="14.00">subject :text</text>
<text text-anchor="start" x="682.062" y="-1927.4" font-family="Times,serif" font-size="14.00">body :text</text>
<text text-anchor="start" x="682.062" y="-1910.6" font-family="Times,serif" font-size="14.00">available_tokens :text</text>
<text text-anchor="start" x="682.062" y="-1893.8" font-family="Times,serif" font-size="14.00">enabled :boolean</text>
<text text-anchor="start" x="682.062" y="-1877" font-family="Times,serif" font-size="14.00">master :boolean</text>
<text text-anchor="start" x="682.062" y="-1860.2" font-family="Times,serif" font-size="14.00">created_at :datetime</text>
<text text-anchor="start" x="682.062" y="-1843.4" font-family="Times,serif" font-size="14.00">updated_at :datetime</text>
</g>
<!-- Job&#45;&gt;Communication -->
<g id="edge6" class="edge"><title>Job&#45;&gt;Communication</title>
<path fill="none" stroke="#d6c76a" d="M788.613,-1019.37C828.327,-945.515 875.626,-857.555 914.509,-785.247"/>
<ellipse fill="none" stroke="#d6c76a" cx="786.526" cy="-1023.25" rx="4.00002" ry="4.00002"/>
<polygon fill="#d6c76a" stroke="#d6c76a" points="914.714,-784.865 923.414,-778.189 917.082,-780.461 919.45,-776.057 919.45,-776.057 919.45,-776.057 917.082,-780.461 915.487,-773.926 914.714,-784.865 914.714,-784.865"/>
</g>
<!-- JobUser -->
<g id="node11" class="node"><title>JobUser</title>
<path fill="none" stroke="black" d="M651.495,-583.6C651.495,-583.6 760.505,-583.6 760.505,-583.6 766.505,-583.6 772.505,-589.6 772.505,-595.6 772.505,-595.6 772.505,-688.4 772.505,-688.4 772.505,-694.4 766.505,-700.4 760.505,-700.4 760.505,-700.4 651.495,-700.4 651.495,-700.4 645.495,-700.4 639.495,-694.4 639.495,-688.4 639.495,-688.4 639.495,-595.6 639.495,-595.6 639.495,-589.6 645.495,-583.6 651.495,-583.6"/>
<text text-anchor="middle" x="706" y="-682.4" font-family="Times,serif" font-size="14.00">JobUser</text>
<polyline fill="none" stroke="black" points="639.495,-675.6 772.505,-675.6 "/>
<text text-anchor="start" x="647.495" y="-657.6" font-family="Times,serif" font-size="14.00">id :integer</text>
<text text-anchor="start" x="647.495" y="-640.8" font-family="Times,serif" font-size="14.00">user_id :integer</text>
<text text-anchor="start" x="647.495" y="-624" font-family="Times,serif" font-size="14.00">job_id :integer</text>
<text text-anchor="start" x="647.495" y="-607.2" font-family="Times,serif" font-size="14.00">created_at :datetime</text>
<text text-anchor="start" x="647.495" y="-590.4" font-family="Times,serif" font-size="14.00">updated_at :datetime</text>
</g>
<!-- Job&#45;&gt;JobUser -->
<g id="edge7" class="edge"><title>Job&#45;&gt;JobUser</title>
<path fill="none" stroke="#6960eb" d="M706,-1006.58C706,-906.67 706,-784.965 706,-710.774"/>
<ellipse fill="none" stroke="#6960eb" cx="706" cy="-1010.7" rx="4" ry="4"/>
<polygon fill="#6960eb" stroke="#6960eb" points="706,-710.628 710.5,-700.628 706,-705.628 706,-700.628 706,-700.628 706,-700.628 706,-705.628 701.5,-700.628 706,-710.628 706,-710.628"/>
</g>
<!-- Job&#45;&gt;User -->
<g id="edge8" class="edge"><title>Job&#45;&gt;User</title>
<path fill="none" stroke="#3d86ed" d="M622.057,-1036.11C587.621,-979.951 546.986,-913.685 508.991,-851.723"/>
<polygon fill="#3d86ed" stroke="#3d86ed" points="622.099,-1036.18 623.49,-1047.05 624.713,-1040.44 627.327,-1044.7 627.327,-1044.7 627.327,-1044.7 624.713,-1040.44 631.163,-1042.35 622.099,-1036.18 622.099,-1036.18"/>
<polygon fill="#3d86ed" stroke="#3d86ed" points="508.875,-851.535 507.484,-840.658 506.262,-847.273 503.648,-843.01 503.648,-843.01 503.648,-843.01 506.262,-847.273 499.812,-845.363 508.875,-851.535 508.875,-851.535"/>
</g>
<!-- LeadSource -->
<g id="node12" class="node"><title>LeadSource</title>
<path fill="none" stroke="black" d="M760.062,-1446.6C760.062,-1446.6 885.938,-1446.6 885.938,-1446.6 891.938,-1446.6 897.938,-1452.6 897.938,-1458.6 897.938,-1458.6 897.938,-1551.4 897.938,-1551.4 897.938,-1557.4 891.938,-1563.4 885.938,-1563.4 885.938,-1563.4 760.062,-1563.4 760.062,-1563.4 754.062,-1563.4 748.062,-1557.4 748.062,-1551.4 748.062,-1551.4 748.062,-1458.6 748.062,-1458.6 748.062,-1452.6 754.062,-1446.6 760.062,-1446.6"/>
<text text-anchor="middle" x="823" y="-1545.4" font-family="Times,serif" font-size="14.00">LeadSource</text>
<polyline fill="none" stroke="black" points="748.062,-1538.6 897.938,-1538.6 "/>
<text text-anchor="start" x="756.062" y="-1520.6" font-family="Times,serif" font-size="14.00">id :integer</text>
<text text-anchor="start" x="756.062" y="-1503.8" font-family="Times,serif" font-size="14.00">name :string</text>
<text text-anchor="start" x="756.062" y="-1487" font-family="Times,serif" font-size="14.00">organization_id :integer</text>
<text text-anchor="start" x="756.062" y="-1470.2" font-family="Times,serif" font-size="14.00">created_at :datetime</text>
<text text-anchor="start" x="756.062" y="-1453.4" font-family="Times,serif" font-size="14.00">updated_at :datetime</text>
</g>
<!-- LeadSource&#45;&gt;Job -->
<g id="edge9" class="edge"><title>LeadSource&#45;&gt;Job</title>
<path fill="none" stroke="#1944fd" d="M799.793,-1438.74C789.906,-1410.94 777.871,-1377.1 765.764,-1343.05"/>
<ellipse fill="none" stroke="#1944fd" cx="801.146" cy="-1442.55" rx="4.00001" ry="4.00001"/>
<polygon fill="#1944fd" stroke="#1944fd" points="765.699,-1342.87 766.588,-1331.94 764.024,-1338.16 762.349,-1333.45 762.349,-1333.45 762.349,-1333.45 764.024,-1338.16 758.109,-1334.96 765.699,-1342.87 765.699,-1342.87"/>
</g>
<!-- LeadUpload -->
<g id="node13" class="node"><title>LeadUpload</title>
<path fill="none" stroke="black" d="M853.664,-1853.4C853.664,-1853.4 988.336,-1853.4 988.336,-1853.4 994.336,-1853.4 1000.34,-1859.4 1000.34,-1865.4 1000.34,-1865.4 1000.34,-2008.6 1000.34,-2008.6 1000.34,-2014.6 994.336,-2020.6 988.336,-2020.6 988.336,-2020.6 853.664,-2020.6 853.664,-2020.6 847.664,-2020.6 841.664,-2014.6 841.664,-2008.6 841.664,-2008.6 841.664,-1865.4 841.664,-1865.4 841.664,-1859.4 847.664,-1853.4 853.664,-1853.4"/>
<text text-anchor="middle" x="921" y="-2002.6" font-family="Times,serif" font-size="14.00">LeadUpload</text>
<polyline fill="none" stroke="black" points="841.664,-1995.8 1000.34,-1995.8 "/>
<text text-anchor="start" x="849.664" y="-1977.8" font-family="Times,serif" font-size="14.00">id :integer</text>
<text text-anchor="start" x="849.664" y="-1961" font-family="Times,serif" font-size="14.00">csv_file_name :string</text>
<text text-anchor="start" x="849.664" y="-1944.2" font-family="Times,serif" font-size="14.00">csv_content_type :string</text>
<text text-anchor="start" x="849.664" y="-1927.4" font-family="Times,serif" font-size="14.00">csv_file_size :integer</text>
<text text-anchor="start" x="849.664" y="-1910.6" font-family="Times,serif" font-size="14.00">csv_updated_at :datetime</text>
<text text-anchor="start" x="849.664" y="-1893.8" font-family="Times,serif" font-size="14.00">name :string</text>
<text text-anchor="start" x="849.664" y="-1877" font-family="Times,serif" font-size="14.00">created_at :datetime</text>
<text text-anchor="start" x="849.664" y="-1860.2" font-family="Times,serif" font-size="14.00">updated_at :datetime</text>
</g>
<!-- Organization -->
<g id="node14" class="node"><title>Organization</title>
<path fill="none" stroke="black" d="M461.553,-1677C461.553,-1677 644.447,-1677 644.447,-1677 650.447,-1677 656.447,-1683 656.447,-1689 656.447,-1689 656.447,-2185 656.447,-2185 656.447,-2191 650.447,-2197 644.447,-2197 644.447,-2197 461.553,-2197 461.553,-2197 455.553,-2197 449.553,-2191 449.553,-2185 449.553,-2185 449.553,-1689 449.553,-1689 449.553,-1683 455.553,-1677 461.553,-1677"/>
<text text-anchor="middle" x="553" y="-2179" font-family="Times,serif" font-size="14.00">Organization</text>
<polyline fill="none" stroke="black" points="449.553,-2172.2 656.447,-2172.2 "/>
<text text-anchor="start" x="457.553" y="-2154.2" font-family="Times,serif" font-size="14.00">id :integer</text>
<text text-anchor="start" x="457.553" y="-2137.4" font-family="Times,serif" font-size="14.00">name :string</text>
<text text-anchor="start" x="457.553" y="-2120.6" font-family="Times,serif" font-size="14.00">guid :string</text>
<text text-anchor="start" x="457.553" y="-2103.8" font-family="Times,serif" font-size="14.00">premium_override :boolean</text>
<text text-anchor="start" x="457.553" y="-2087" font-family="Times,serif" font-size="14.00">stripe_plan_id :string</text>
<text text-anchor="start" x="457.553" y="-2070.2" font-family="Times,serif" font-size="14.00">stripe_customer_token :string</text>
<text text-anchor="start" x="457.553" y="-2053.4" font-family="Times,serif" font-size="14.00">last_payment_successful :boolean</text>
<text text-anchor="start" x="457.553" y="-2036.6" font-family="Times,serif" font-size="14.00">last_payment_date :datetime</text>
<text text-anchor="start" x="457.553" y="-2019.8" font-family="Times,serif" font-size="14.00">stripe_plan_name :string</text>
<text text-anchor="start" x="457.553" y="-2003" font-family="Times,serif" font-size="14.00">name_on_credit_card :string</text>
<text text-anchor="start" x="457.553" y="-1986.2" font-family="Times,serif" font-size="14.00">last_four_digits :string</text>
<text text-anchor="start" x="457.553" y="-1969.4" font-family="Times,serif" font-size="14.00">address :string</text>
<text text-anchor="start" x="457.553" y="-1952.6" font-family="Times,serif" font-size="14.00">address_2 :string</text>
<text text-anchor="start" x="457.553" y="-1935.8" font-family="Times,serif" font-size="14.00">city :string</text>
<text text-anchor="start" x="457.553" y="-1919" font-family="Times,serif" font-size="14.00">state :string</text>
<text text-anchor="start" x="457.553" y="-1902.2" font-family="Times,serif" font-size="14.00">zip :string</text>
<text text-anchor="start" x="457.553" y="-1885.4" font-family="Times,serif" font-size="14.00">email :string</text>
<text text-anchor="start" x="457.553" y="-1868.6" font-family="Times,serif" font-size="14.00">phone :string</text>
<text text-anchor="start" x="457.553" y="-1851.8" font-family="Times,serif" font-size="14.00">fax :string</text>
<text text-anchor="start" x="457.553" y="-1835" font-family="Times,serif" font-size="14.00">license_number :string</text>
<text text-anchor="start" x="457.553" y="-1818.2" font-family="Times,serif" font-size="14.00">logo_file_name :string</text>
<text text-anchor="start" x="457.553" y="-1801.4" font-family="Times,serif" font-size="14.00">logo_content_type :string</text>
<text text-anchor="start" x="457.553" y="-1784.6" font-family="Times,serif" font-size="14.00">logo_file_size :integer</text>
<text text-anchor="start" x="457.553" y="-1767.8" font-family="Times,serif" font-size="14.00">logo_updated_at :datetime</text>
<text text-anchor="start" x="457.553" y="-1751" font-family="Times,serif" font-size="14.00">timecard_lock_period :string</text>
<text text-anchor="start" x="457.553" y="-1734.2" font-family="Times,serif" font-size="14.00">timecard_lock_date :datetime</text>
<text text-anchor="start" x="457.553" y="-1717.4" font-family="Times,serif" font-size="14.00">created_at :datetime</text>
<text text-anchor="start" x="457.553" y="-1700.6" font-family="Times,serif" font-size="14.00">updated_at :datetime</text>
<text text-anchor="start" x="457.553" y="-1683.8" font-family="Times,serif" font-size="14.00">active :boolean</text>
</g>
<!-- Organization&#45;&gt;User -->
<g id="edge10" class="edge"><title>Organization&#45;&gt;User</title>
<path fill="none" stroke="#3f8713" d="M443.259,-1678.83C442.183,-1677.87 441.096,-1676.93 440,-1676 390.031,-1633.59 337.291,-1691.69 297,-1640 145.546,-1445.69 187.691,-1160.67 255.408,-945.085"/>
<ellipse fill="none" stroke="#3f8713" cx="446.374" cy="-1681.71" rx="4.00002" ry="4.00002"/>
<polygon fill="#3f8713" stroke="#3f8713" points="255.419,-945.048 262.733,-936.878 256.932,-940.283 258.444,-935.517 258.444,-935.517 258.444,-935.517 256.932,-940.283 254.155,-934.156 255.419,-945.048 255.419,-945.048"/>
</g>
<!-- Organization&#45;&gt;Crew -->
<g id="edge11" class="edge"><title>Organization&#45;&gt;Crew</title>
<path fill="none" stroke="#0730dc" d="M446.394,-1669.49C433.65,-1637.62 421.547,-1607.37 411.297,-1581.74"/>
<ellipse fill="none" stroke="#0730dc" cx="447.988" cy="-1673.47" rx="4.00001" ry="4.00001"/>
<polygon fill="#0730dc" stroke="#0730dc" points="411.175,-1581.44 411.64,-1570.48 409.318,-1576.8 407.461,-1572.15 407.461,-1572.15 407.461,-1572.15 409.318,-1576.8 403.283,-1573.82 411.175,-1581.44 411.175,-1581.44"/>
</g>
<!-- Organization&#45;&gt;Job -->
<g id="edge12" class="edge"><title>Organization&#45;&gt;Job</title>
<path fill="none" stroke="#567ffa" d="M477.676,-1668.48C463.489,-1571.24 463.56,-1462.58 503,-1370 526.847,-1314.03 575.512,-1266.37 619.216,-1232.19"/>
<ellipse fill="none" stroke="#567ffa" cx="478.31" cy="-1672.69" rx="4.00001" ry="4.00001"/>
<polygon fill="#567ffa" stroke="#567ffa" points="619.384,-1232.06 630.054,-1229.53 623.348,-1229.01 627.311,-1225.96 627.311,-1225.96 627.311,-1225.96 623.348,-1229.01 624.568,-1222.4 619.384,-1232.06 619.384,-1232.06"/>
</g>
<!-- Organization&#45;&gt;Appointment -->
<g id="edge13" class="edge"><title>Organization&#45;&gt;Appointment</title>
<path fill="none" stroke="#da40eb" d="M595.273,-1668.69C598.17,-1650.36 600.983,-1632.58 603.618,-1615.91"/>
<ellipse fill="none" stroke="#da40eb" cx="594.603" cy="-1672.92" rx="4.00001" ry="4.00001"/>
<polygon fill="#da40eb" stroke="#da40eb" points="603.674,-1615.56 609.681,-1606.39 604.455,-1610.62 605.236,-1605.69 605.236,-1605.69 605.236,-1605.69 604.455,-1610.62 600.791,-1604.98 603.674,-1615.56 603.674,-1615.56"/>
</g>
<!-- Organization&#45;&gt;Contact -->
<g id="edge14" class="edge"><title>Organization&#45;&gt;Contact</title>
<path fill="none" stroke="#795c1d" d="M662.824,-1677.7C663.544,-1677.13 664.27,-1676.56 665,-1676 750.81,-1609.93 815.228,-1699.07 906,-1640 906.649,-1639.58 907.295,-1639.15 907.936,-1638.71"/>
<ellipse fill="none" stroke="#795c1d" cx="659.532" cy="-1680.45" rx="4.00002" ry="4.00002"/>
<polygon fill="#795c1d" stroke="#795c1d" points="908.024,-1638.65 918.735,-1636.29 912.037,-1635.66 916.05,-1632.68 916.05,-1632.68 916.05,-1632.68 912.037,-1635.66 913.366,-1629.07 908.024,-1638.65 908.024,-1638.65"/>
</g>
<!-- Organization&#45;&gt;Communication -->
<g id="edge15" class="edge"><title>Organization&#45;&gt;Communication</title>
<path fill="none" stroke="#f17004" d="M662.848,-1677.58C663.561,-1677.05 664.278,-1676.52 665,-1676 738.943,-1622.55 1012.38,-1707.29 1074,-1640 1287.7,-1406.67 1155.24,-1000.57 1061.06,-785.73"/>
<ellipse fill="none" stroke="#f17004" cx="659.701" cy="-1680.06" rx="4.00002" ry="4.00002"/>
<polygon fill="#f17004" stroke="#f17004" points="1060.92,-785.425 1061,-774.459 1058.9,-780.851 1056.88,-776.277 1056.88,-776.277 1056.88,-776.277 1058.9,-780.851 1052.77,-778.095 1060.92,-785.425 1060.92,-785.425"/>
</g>
<!-- Quote -->
<g id="node16" class="node"><title>Quote</title>
<path fill="none" stroke="black" d="M1030.49,-1878.6C1030.49,-1878.6 1139.51,-1878.6 1139.51,-1878.6 1145.51,-1878.6 1151.51,-1884.6 1151.51,-1890.6 1151.51,-1890.6 1151.51,-1983.4 1151.51,-1983.4 1151.51,-1989.4 1145.51,-1995.4 1139.51,-1995.4 1139.51,-1995.4 1030.49,-1995.4 1030.49,-1995.4 1024.49,-1995.4 1018.49,-1989.4 1018.49,-1983.4 1018.49,-1983.4 1018.49,-1890.6 1018.49,-1890.6 1018.49,-1884.6 1024.49,-1878.6 1030.49,-1878.6"/>
<text text-anchor="middle" x="1085" y="-1977.4" font-family="Times,serif" font-size="14.00">Quote</text>
<polyline fill="none" stroke="black" points="1018.49,-1970.6 1151.51,-1970.6 "/>
<text text-anchor="start" x="1026.49" y="-1952.6" font-family="Times,serif" font-size="14.00">id :integer</text>
<text text-anchor="start" x="1026.49" y="-1935.8" font-family="Times,serif" font-size="14.00">quote :string</text>
<text text-anchor="start" x="1026.49" y="-1919" font-family="Times,serif" font-size="14.00">author :string</text>
<text text-anchor="start" x="1026.49" y="-1902.2" font-family="Times,serif" font-size="14.00">created_at :datetime</text>
<text text-anchor="start" x="1026.49" y="-1885.4" font-family="Times,serif" font-size="14.00">updated_at :datetime</text>
</g>
</g>
</svg>
